G04 #@! TF.GenerationSoftware,KiCad,Pcbnew,(5.1.4-0-10_14)*
G04 #@! TF.CreationDate,2024-02-26T14:42:05+09:00*
G04 #@! TF.ProjectId,carry53-pcb,63617272-7935-4332-9d70-63622e6b6963,rev?*
G04 #@! TF.SameCoordinates,Original*
G04 #@! TF.FileFunction,Legend,Bot*
G04 #@! TF.FilePolarity,Positive*
%FSLAX46Y46*%
G04 Gerber Fmt 4.6, Leading zero omitted, Abs format (unit mm)*
G04 Created by KiCad (PCBNEW (5.1.4-0-10_14)) date 2024-02-26 14:42:05*
%MOMM*%
%LPD*%
G04 APERTURE LIST*
%ADD10C,0.150000*%
%ADD11C,0.120000*%
%ADD12C,0.100000*%
G04 APERTURE END LIST*
D10*
X15922500Y-51514500D02*
G75*
G03X15922500Y-51514500I-1000000J0D01*
G01*
X17522500Y-48914500D02*
X12322500Y-48914500D01*
X17522500Y-54114500D02*
X17522500Y-48914500D01*
X12322500Y-54114500D02*
X17522500Y-54114500D01*
X12322500Y-48914500D02*
X12322500Y-54114500D01*
D11*
X28533500Y-28414500D02*
X30963500Y-28414500D01*
X28513500Y-28424500D02*
X28513500Y-29424500D01*
X28513500Y-31474500D02*
X30363500Y-31474500D01*
X28513500Y-30424500D02*
X28513500Y-31474500D01*
X48123500Y-32844500D02*
X49413500Y-32844500D01*
X48123500Y-32394500D02*
X48123500Y-32844500D01*
X47673500Y-32394500D02*
X48123500Y-32394500D01*
X40903500Y-32394500D02*
X40903500Y-32844500D01*
X41353500Y-32394500D02*
X40903500Y-32394500D01*
X48123500Y-39614500D02*
X48123500Y-39164500D01*
X47673500Y-39614500D02*
X48123500Y-39614500D01*
X40903500Y-39614500D02*
X40903500Y-39164500D01*
X41353500Y-39614500D02*
X40903500Y-39614500D01*
D10*
X15922500Y-63309500D02*
G75*
G03X15922500Y-63309500I-1000000J0D01*
G01*
X17522500Y-60709500D02*
X12322500Y-60709500D01*
X17522500Y-65909500D02*
X17522500Y-60709500D01*
X12322500Y-65909500D02*
X17522500Y-65909500D01*
X12322500Y-60709500D02*
X12322500Y-65909500D01*
D11*
X23623500Y-35984721D02*
X23623500Y-36310279D01*
X22603500Y-35984721D02*
X22603500Y-36310279D01*
X22603500Y-30849279D02*
X22603500Y-30523721D01*
X23623500Y-30849279D02*
X23623500Y-30523721D01*
X14822721Y-57608500D02*
X15148279Y-57608500D01*
X14822721Y-58628500D02*
X15148279Y-58628500D01*
X22569564Y-40994500D02*
X21365436Y-40994500D01*
X22569564Y-39174500D02*
X21365436Y-39174500D01*
D12*
X24687500Y-33173500D02*
G75*
G03X24687500Y-33173500I-50000J0D01*
G01*
X24687500Y-33508100D02*
G75*
G03X24687500Y-33508100I-50000J0D01*
G01*
D11*
X300243750Y-80037500D02*
X300243750Y-76137500D01*
X298243750Y-80037500D02*
X298243750Y-76137500D01*
X300243750Y-80037500D02*
X298243750Y-80037500D01*
X281193750Y-80037500D02*
X281193750Y-76137500D01*
X279193750Y-80037500D02*
X279193750Y-76137500D01*
X281193750Y-80037500D02*
X279193750Y-80037500D01*
X262143750Y-80037500D02*
X262143750Y-76137500D01*
X260143750Y-80037500D02*
X260143750Y-76137500D01*
X262143750Y-80037500D02*
X260143750Y-80037500D01*
X243093750Y-80037500D02*
X243093750Y-76137500D01*
X241093750Y-80037500D02*
X241093750Y-76137500D01*
X243093750Y-80037500D02*
X241093750Y-80037500D01*
X217693750Y-80037500D02*
X217693750Y-76137500D01*
X215693750Y-80037500D02*
X215693750Y-76137500D01*
X217693750Y-80037500D02*
X215693750Y-80037500D01*
X195468750Y-80037500D02*
X195468750Y-76137500D01*
X193468750Y-80037500D02*
X193468750Y-76137500D01*
X195468750Y-80037500D02*
X193468750Y-80037500D01*
X167687500Y-80037500D02*
X167687500Y-76137500D01*
X165687500Y-80037500D02*
X165687500Y-76137500D01*
X167687500Y-80037500D02*
X165687500Y-80037500D01*
X139112500Y-80037500D02*
X139112500Y-76137500D01*
X137112500Y-80037500D02*
X137112500Y-76137500D01*
X139112500Y-80037500D02*
X137112500Y-80037500D01*
X109743750Y-80037500D02*
X109743750Y-76137500D01*
X107743750Y-80037500D02*
X107743750Y-76137500D01*
X109743750Y-80037500D02*
X107743750Y-80037500D01*
X84343750Y-80037500D02*
X84343750Y-76137500D01*
X82343750Y-80037500D02*
X82343750Y-76137500D01*
X84343750Y-80037500D02*
X82343750Y-80037500D01*
X59737500Y-80037500D02*
X59737500Y-76137500D01*
X57737500Y-80037500D02*
X57737500Y-76137500D01*
X59737500Y-80037500D02*
X57737500Y-80037500D01*
X36718750Y-80037500D02*
X36718750Y-76137500D01*
X34718750Y-80037500D02*
X34718750Y-76137500D01*
X36718750Y-80037500D02*
X34718750Y-80037500D01*
X300243750Y-60987500D02*
X300243750Y-57087500D01*
X298243750Y-60987500D02*
X298243750Y-57087500D01*
X300243750Y-60987500D02*
X298243750Y-60987500D01*
X281193750Y-60987500D02*
X281193750Y-57087500D01*
X279193750Y-60987500D02*
X279193750Y-57087500D01*
X281193750Y-60987500D02*
X279193750Y-60987500D01*
X262143750Y-60987500D02*
X262143750Y-57087500D01*
X260143750Y-60987500D02*
X260143750Y-57087500D01*
X262143750Y-60987500D02*
X260143750Y-60987500D01*
X243093750Y-60987500D02*
X243093750Y-57087500D01*
X241093750Y-60987500D02*
X241093750Y-57087500D01*
X243093750Y-60987500D02*
X241093750Y-60987500D01*
X224043750Y-60987500D02*
X224043750Y-57087500D01*
X222043750Y-60987500D02*
X222043750Y-57087500D01*
X224043750Y-60987500D02*
X222043750Y-60987500D01*
X204993750Y-60987500D02*
X204993750Y-57087500D01*
X202993750Y-60987500D02*
X202993750Y-57087500D01*
X204993750Y-60987500D02*
X202993750Y-60987500D01*
X185943750Y-60987500D02*
X185943750Y-57087500D01*
X183943750Y-60987500D02*
X183943750Y-57087500D01*
X185943750Y-60987500D02*
X183943750Y-60987500D01*
X168576500Y-61622500D02*
X168576500Y-57722500D01*
X166576500Y-61622500D02*
X166576500Y-57722500D01*
X168576500Y-61622500D02*
X166576500Y-61622500D01*
X147843750Y-60987500D02*
X147843750Y-57087500D01*
X145843750Y-60987500D02*
X145843750Y-57087500D01*
X147843750Y-60987500D02*
X145843750Y-60987500D01*
X128793750Y-60987500D02*
X128793750Y-57087500D01*
X126793750Y-60987500D02*
X126793750Y-57087500D01*
X128793750Y-60987500D02*
X126793750Y-60987500D01*
X109743750Y-60987500D02*
X109743750Y-57087500D01*
X107743750Y-60987500D02*
X107743750Y-57087500D01*
X109743750Y-60987500D02*
X107743750Y-60987500D01*
X90693750Y-60987500D02*
X90693750Y-57087500D01*
X88693750Y-60987500D02*
X88693750Y-57087500D01*
X90693750Y-60987500D02*
X88693750Y-60987500D01*
X71643750Y-60987500D02*
X71643750Y-57087500D01*
X69643750Y-60987500D02*
X69643750Y-57087500D01*
X71643750Y-60987500D02*
X69643750Y-60987500D01*
X42846500Y-62511500D02*
X42846500Y-58611500D01*
X40846500Y-62511500D02*
X40846500Y-58611500D01*
X42846500Y-62511500D02*
X40846500Y-62511500D01*
X297068750Y-45112500D02*
X297068750Y-41212500D01*
X295068750Y-45112500D02*
X295068750Y-41212500D01*
X297068750Y-45112500D02*
X295068750Y-45112500D01*
X257381250Y-41937500D02*
X257381250Y-38037500D01*
X255381250Y-41937500D02*
X255381250Y-38037500D01*
X257381250Y-41937500D02*
X255381250Y-41937500D01*
X238331250Y-41937500D02*
X238331250Y-38037500D01*
X236331250Y-41937500D02*
X236331250Y-38037500D01*
X238331250Y-41937500D02*
X236331250Y-41937500D01*
X219281250Y-41937500D02*
X219281250Y-38037500D01*
X217281250Y-41937500D02*
X217281250Y-38037500D01*
X219281250Y-41937500D02*
X217281250Y-41937500D01*
X200231250Y-41937500D02*
X200231250Y-38037500D01*
X198231250Y-41937500D02*
X198231250Y-38037500D01*
X200231250Y-41937500D02*
X198231250Y-41937500D01*
X181181250Y-41937500D02*
X181181250Y-38037500D01*
X179181250Y-41937500D02*
X179181250Y-38037500D01*
X181181250Y-41937500D02*
X179181250Y-41937500D01*
X162131250Y-41937500D02*
X162131250Y-38037500D01*
X160131250Y-41937500D02*
X160131250Y-38037500D01*
X162131250Y-41937500D02*
X160131250Y-41937500D01*
X143081250Y-41937500D02*
X143081250Y-38037500D01*
X141081250Y-41937500D02*
X141081250Y-38037500D01*
X143081250Y-41937500D02*
X141081250Y-41937500D01*
X124031250Y-41937500D02*
X124031250Y-38037500D01*
X122031250Y-41937500D02*
X122031250Y-38037500D01*
X124031250Y-41937500D02*
X122031250Y-41937500D01*
X104981250Y-41937500D02*
X104981250Y-38037500D01*
X102981250Y-41937500D02*
X102981250Y-38037500D01*
X104981250Y-41937500D02*
X102981250Y-41937500D01*
X85931250Y-41937500D02*
X85931250Y-38037500D01*
X83931250Y-41937500D02*
X83931250Y-38037500D01*
X85931250Y-41937500D02*
X83931250Y-41937500D01*
X66881250Y-41937500D02*
X66881250Y-38037500D01*
X64881250Y-41937500D02*
X64881250Y-38037500D01*
X66881250Y-41937500D02*
X64881250Y-41937500D01*
X39353500Y-50970500D02*
X39353500Y-47070500D01*
X37353500Y-50970500D02*
X37353500Y-47070500D01*
X39353500Y-50970500D02*
X37353500Y-50970500D01*
X296275000Y-22887500D02*
X296275000Y-18987500D01*
X294275000Y-22887500D02*
X294275000Y-18987500D01*
X296275000Y-22887500D02*
X294275000Y-22887500D01*
X271668750Y-22887500D02*
X271668750Y-18987500D01*
X269668750Y-22887500D02*
X269668750Y-18987500D01*
X271668750Y-22887500D02*
X269668750Y-22887500D01*
X252618750Y-22887500D02*
X252618750Y-18987500D01*
X250618750Y-22887500D02*
X250618750Y-18987500D01*
X252618750Y-22887500D02*
X250618750Y-22887500D01*
X233568750Y-22887500D02*
X233568750Y-18987500D01*
X231568750Y-22887500D02*
X231568750Y-18987500D01*
X233568750Y-22887500D02*
X231568750Y-22887500D01*
X215312500Y-27983500D02*
X215312500Y-24083500D01*
X213312500Y-27983500D02*
X213312500Y-24083500D01*
X215312500Y-27983500D02*
X213312500Y-27983500D01*
X195468750Y-22887500D02*
X195468750Y-18987500D01*
X193468750Y-22887500D02*
X193468750Y-18987500D01*
X195468750Y-22887500D02*
X193468750Y-22887500D01*
X176418750Y-22887500D02*
X176418750Y-18987500D01*
X174418750Y-22887500D02*
X174418750Y-18987500D01*
X176418750Y-22887500D02*
X174418750Y-22887500D01*
X157368750Y-22887500D02*
X157368750Y-18987500D01*
X155368750Y-22887500D02*
X155368750Y-18987500D01*
X157368750Y-22887500D02*
X155368750Y-22887500D01*
X138318750Y-22887500D02*
X138318750Y-18987500D01*
X136318750Y-22887500D02*
X136318750Y-18987500D01*
X138318750Y-22887500D02*
X136318750Y-22887500D01*
X120062500Y-28094500D02*
X120062500Y-24194500D01*
X118062500Y-28094500D02*
X118062500Y-24194500D01*
X120062500Y-28094500D02*
X118062500Y-28094500D01*
X100218750Y-22887500D02*
X100218750Y-18987500D01*
X98218750Y-22887500D02*
X98218750Y-18987500D01*
X100218750Y-22887500D02*
X98218750Y-22887500D01*
X81168750Y-22887500D02*
X81168750Y-18987500D01*
X79168750Y-22887500D02*
X79168750Y-18987500D01*
X81168750Y-22887500D02*
X79168750Y-22887500D01*
X62118750Y-22887500D02*
X62118750Y-18987500D01*
X60118750Y-22887500D02*
X60118750Y-18987500D01*
X62118750Y-22887500D02*
X60118750Y-22887500D01*
X20938500Y-22014500D02*
X20938500Y-18114500D01*
X18938500Y-22014500D02*
X18938500Y-18114500D01*
X20938500Y-22014500D02*
X18938500Y-22014500D01*
X32128500Y-30087279D02*
X32128500Y-29761721D01*
X33148500Y-30087279D02*
X33148500Y-29761721D01*
X25778500Y-30087279D02*
X25778500Y-29761721D01*
X26798500Y-30087279D02*
X26798500Y-29761721D01*
D10*
X20509833Y-51935261D02*
X20366976Y-51982880D01*
X20128880Y-51982880D01*
X20033642Y-51935261D01*
X19986023Y-51887642D01*
X19938404Y-51792404D01*
X19938404Y-51697166D01*
X19986023Y-51601928D01*
X20033642Y-51554309D01*
X20128880Y-51506690D01*
X20319357Y-51459071D01*
X20414595Y-51411452D01*
X20462214Y-51363833D01*
X20509833Y-51268595D01*
X20509833Y-51173357D01*
X20462214Y-51078119D01*
X20414595Y-51030500D01*
X20319357Y-50982880D01*
X20081261Y-50982880D01*
X19938404Y-51030500D01*
X19605071Y-50982880D02*
X19366976Y-51982880D01*
X19176500Y-51268595D01*
X18986023Y-51982880D01*
X18747928Y-50982880D01*
X17843166Y-51982880D02*
X18414595Y-51982880D01*
X18128880Y-51982880D02*
X18128880Y-50982880D01*
X18224119Y-51125738D01*
X18319357Y-51220976D01*
X18414595Y-51268595D01*
X18374595Y-27090880D02*
X18374595Y-27900404D01*
X18326976Y-27995642D01*
X18279357Y-28043261D01*
X18184119Y-28090880D01*
X17993642Y-28090880D01*
X17898404Y-28043261D01*
X17850785Y-27995642D01*
X17803166Y-27900404D01*
X17803166Y-27090880D01*
X17374595Y-28043261D02*
X17231738Y-28090880D01*
X16993642Y-28090880D01*
X16898404Y-28043261D01*
X16850785Y-27995642D01*
X16803166Y-27900404D01*
X16803166Y-27805166D01*
X16850785Y-27709928D01*
X16898404Y-27662309D01*
X16993642Y-27614690D01*
X17184119Y-27567071D01*
X17279357Y-27519452D01*
X17326976Y-27471833D01*
X17374595Y-27376595D01*
X17374595Y-27281357D01*
X17326976Y-27186119D01*
X17279357Y-27138500D01*
X17184119Y-27090880D01*
X16946023Y-27090880D01*
X16803166Y-27138500D01*
X16041261Y-27567071D02*
X15898404Y-27614690D01*
X15850785Y-27662309D01*
X15803166Y-27757547D01*
X15803166Y-27900404D01*
X15850785Y-27995642D01*
X15898404Y-28043261D01*
X15993642Y-28090880D01*
X16374595Y-28090880D01*
X16374595Y-27090880D01*
X16041261Y-27090880D01*
X15946023Y-27138500D01*
X15898404Y-27186119D01*
X15850785Y-27281357D01*
X15850785Y-27376595D01*
X15898404Y-27471833D01*
X15946023Y-27519452D01*
X16041261Y-27567071D01*
X16374595Y-27567071D01*
X14850785Y-28090880D02*
X15422214Y-28090880D01*
X15136500Y-28090880D02*
X15136500Y-27090880D01*
X15231738Y-27233738D01*
X15326976Y-27328976D01*
X15422214Y-27376595D01*
X30225404Y-27090880D02*
X30225404Y-27900404D01*
X30177785Y-27995642D01*
X30130166Y-28043261D01*
X30034928Y-28090880D01*
X29844452Y-28090880D01*
X29749214Y-28043261D01*
X29701595Y-27995642D01*
X29653976Y-27900404D01*
X29653976Y-27090880D01*
X29225404Y-27186119D02*
X29177785Y-27138500D01*
X29082547Y-27090880D01*
X28844452Y-27090880D01*
X28749214Y-27138500D01*
X28701595Y-27186119D01*
X28653976Y-27281357D01*
X28653976Y-27376595D01*
X28701595Y-27519452D01*
X29273023Y-28090880D01*
X28653976Y-28090880D01*
X45275404Y-29424380D02*
X45275404Y-30233904D01*
X45227785Y-30329142D01*
X45180166Y-30376761D01*
X45084928Y-30424380D01*
X44894452Y-30424380D01*
X44799214Y-30376761D01*
X44751595Y-30329142D01*
X44703976Y-30233904D01*
X44703976Y-29424380D01*
X43703976Y-30424380D02*
X44275404Y-30424380D01*
X43989690Y-30424380D02*
X43989690Y-29424380D01*
X44084928Y-29567238D01*
X44180166Y-29662476D01*
X44275404Y-29710095D01*
X20509833Y-63603261D02*
X20366976Y-63650880D01*
X20128880Y-63650880D01*
X20033642Y-63603261D01*
X19986023Y-63555642D01*
X19938404Y-63460404D01*
X19938404Y-63365166D01*
X19986023Y-63269928D01*
X20033642Y-63222309D01*
X20128880Y-63174690D01*
X20319357Y-63127071D01*
X20414595Y-63079452D01*
X20462214Y-63031833D01*
X20509833Y-62936595D01*
X20509833Y-62841357D01*
X20462214Y-62746119D01*
X20414595Y-62698500D01*
X20319357Y-62650880D01*
X20081261Y-62650880D01*
X19938404Y-62698500D01*
X19605071Y-62650880D02*
X19366976Y-63650880D01*
X19176500Y-62936595D01*
X18986023Y-63650880D01*
X18747928Y-62650880D01*
X18414595Y-62746119D02*
X18366976Y-62698500D01*
X18271738Y-62650880D01*
X18033642Y-62650880D01*
X17938404Y-62698500D01*
X17890785Y-62746119D01*
X17843166Y-62841357D01*
X17843166Y-62936595D01*
X17890785Y-63079452D01*
X18462214Y-63650880D01*
X17843166Y-63650880D01*
X25185166Y-37996880D02*
X25518500Y-37520690D01*
X25756595Y-37996880D02*
X25756595Y-36996880D01*
X25375642Y-36996880D01*
X25280404Y-37044500D01*
X25232785Y-37092119D01*
X25185166Y-37187357D01*
X25185166Y-37330214D01*
X25232785Y-37425452D01*
X25280404Y-37473071D01*
X25375642Y-37520690D01*
X25756595Y-37520690D01*
X24851833Y-36996880D02*
X24232785Y-36996880D01*
X24566119Y-37377833D01*
X24423261Y-37377833D01*
X24328023Y-37425452D01*
X24280404Y-37473071D01*
X24232785Y-37568309D01*
X24232785Y-37806404D01*
X24280404Y-37901642D01*
X24328023Y-37949261D01*
X24423261Y-37996880D01*
X24708976Y-37996880D01*
X24804214Y-37949261D01*
X24851833Y-37901642D01*
X21629166Y-29106880D02*
X21962500Y-28630690D01*
X22200595Y-29106880D02*
X22200595Y-28106880D01*
X21819642Y-28106880D01*
X21724404Y-28154500D01*
X21676785Y-28202119D01*
X21629166Y-28297357D01*
X21629166Y-28440214D01*
X21676785Y-28535452D01*
X21724404Y-28583071D01*
X21819642Y-28630690D01*
X22200595Y-28630690D01*
X21248214Y-28202119D02*
X21200595Y-28154500D01*
X21105357Y-28106880D01*
X20867261Y-28106880D01*
X20772023Y-28154500D01*
X20724404Y-28202119D01*
X20676785Y-28297357D01*
X20676785Y-28392595D01*
X20724404Y-28535452D01*
X21295833Y-29106880D01*
X20676785Y-29106880D01*
X17692166Y-58570880D02*
X18025500Y-58094690D01*
X18263595Y-58570880D02*
X18263595Y-57570880D01*
X17882642Y-57570880D01*
X17787404Y-57618500D01*
X17739785Y-57666119D01*
X17692166Y-57761357D01*
X17692166Y-57904214D01*
X17739785Y-57999452D01*
X17787404Y-58047071D01*
X17882642Y-58094690D01*
X18263595Y-58094690D01*
X16739785Y-58570880D02*
X17311214Y-58570880D01*
X17025500Y-58570880D02*
X17025500Y-57570880D01*
X17120738Y-57713738D01*
X17215976Y-57808976D01*
X17311214Y-57856595D01*
X19128833Y-40140071D02*
X19462166Y-40140071D01*
X19462166Y-40663880D02*
X19462166Y-39663880D01*
X18985976Y-39663880D01*
X18081214Y-40663880D02*
X18652642Y-40663880D01*
X18366928Y-40663880D02*
X18366928Y-39663880D01*
X18462166Y-39806738D01*
X18557404Y-39901976D01*
X18652642Y-39949595D01*
X28717166Y-32520071D02*
X28383833Y-32520071D01*
X28240976Y-33043880D02*
X28717166Y-33043880D01*
X28717166Y-32043880D01*
X28240976Y-32043880D01*
X27860023Y-32996261D02*
X27717166Y-33043880D01*
X27479071Y-33043880D01*
X27383833Y-32996261D01*
X27336214Y-32948642D01*
X27288595Y-32853404D01*
X27288595Y-32758166D01*
X27336214Y-32662928D01*
X27383833Y-32615309D01*
X27479071Y-32567690D01*
X27669547Y-32520071D01*
X27764785Y-32472452D01*
X27812404Y-32424833D01*
X27860023Y-32329595D01*
X27860023Y-32234357D01*
X27812404Y-32139119D01*
X27764785Y-32091500D01*
X27669547Y-32043880D01*
X27431452Y-32043880D01*
X27288595Y-32091500D01*
X26860023Y-33043880D02*
X26860023Y-32043880D01*
X26621928Y-32043880D01*
X26479071Y-32091500D01*
X26383833Y-32186738D01*
X26336214Y-32281976D01*
X26288595Y-32472452D01*
X26288595Y-32615309D01*
X26336214Y-32805785D01*
X26383833Y-32901023D01*
X26479071Y-32996261D01*
X26621928Y-33043880D01*
X26860023Y-33043880D01*
X25907642Y-32139119D02*
X25860023Y-32091500D01*
X25764785Y-32043880D01*
X25526690Y-32043880D01*
X25431452Y-32091500D01*
X25383833Y-32139119D01*
X25336214Y-32234357D01*
X25336214Y-32329595D01*
X25383833Y-32472452D01*
X25955261Y-33043880D01*
X25336214Y-33043880D01*
X28717166Y-34425071D02*
X28383833Y-34425071D01*
X28240976Y-34948880D02*
X28717166Y-34948880D01*
X28717166Y-33948880D01*
X28240976Y-33948880D01*
X27860023Y-34901261D02*
X27717166Y-34948880D01*
X27479071Y-34948880D01*
X27383833Y-34901261D01*
X27336214Y-34853642D01*
X27288595Y-34758404D01*
X27288595Y-34663166D01*
X27336214Y-34567928D01*
X27383833Y-34520309D01*
X27479071Y-34472690D01*
X27669547Y-34425071D01*
X27764785Y-34377452D01*
X27812404Y-34329833D01*
X27860023Y-34234595D01*
X27860023Y-34139357D01*
X27812404Y-34044119D01*
X27764785Y-33996500D01*
X27669547Y-33948880D01*
X27431452Y-33948880D01*
X27288595Y-33996500D01*
X26860023Y-34948880D02*
X26860023Y-33948880D01*
X26621928Y-33948880D01*
X26479071Y-33996500D01*
X26383833Y-34091738D01*
X26336214Y-34186976D01*
X26288595Y-34377452D01*
X26288595Y-34520309D01*
X26336214Y-34710785D01*
X26383833Y-34806023D01*
X26479071Y-34901261D01*
X26621928Y-34948880D01*
X26860023Y-34948880D01*
X25336214Y-34948880D02*
X25907642Y-34948880D01*
X25621928Y-34948880D02*
X25621928Y-33948880D01*
X25717166Y-34091738D01*
X25812404Y-34186976D01*
X25907642Y-34234595D01*
X301696130Y-76573214D02*
X300696130Y-76573214D01*
X300696130Y-76811309D01*
X300743750Y-76954166D01*
X300838988Y-77049404D01*
X300934226Y-77097023D01*
X301124702Y-77144642D01*
X301267559Y-77144642D01*
X301458035Y-77097023D01*
X301553273Y-77049404D01*
X301648511Y-76954166D01*
X301696130Y-76811309D01*
X301696130Y-76573214D01*
X300696130Y-78049404D02*
X300696130Y-77573214D01*
X301172321Y-77525595D01*
X301124702Y-77573214D01*
X301077083Y-77668452D01*
X301077083Y-77906547D01*
X301124702Y-78001785D01*
X301172321Y-78049404D01*
X301267559Y-78097023D01*
X301505654Y-78097023D01*
X301600892Y-78049404D01*
X301648511Y-78001785D01*
X301696130Y-77906547D01*
X301696130Y-77668452D01*
X301648511Y-77573214D01*
X301600892Y-77525595D01*
X300696130Y-78430357D02*
X300696130Y-79049404D01*
X301077083Y-78716071D01*
X301077083Y-78858928D01*
X301124702Y-78954166D01*
X301172321Y-79001785D01*
X301267559Y-79049404D01*
X301505654Y-79049404D01*
X301600892Y-79001785D01*
X301648511Y-78954166D01*
X301696130Y-78858928D01*
X301696130Y-78573214D01*
X301648511Y-78477976D01*
X301600892Y-78430357D01*
X282646130Y-76573214D02*
X281646130Y-76573214D01*
X281646130Y-76811309D01*
X281693750Y-76954166D01*
X281788988Y-77049404D01*
X281884226Y-77097023D01*
X282074702Y-77144642D01*
X282217559Y-77144642D01*
X282408035Y-77097023D01*
X282503273Y-77049404D01*
X282598511Y-76954166D01*
X282646130Y-76811309D01*
X282646130Y-76573214D01*
X281646130Y-78049404D02*
X281646130Y-77573214D01*
X282122321Y-77525595D01*
X282074702Y-77573214D01*
X282027083Y-77668452D01*
X282027083Y-77906547D01*
X282074702Y-78001785D01*
X282122321Y-78049404D01*
X282217559Y-78097023D01*
X282455654Y-78097023D01*
X282550892Y-78049404D01*
X282598511Y-78001785D01*
X282646130Y-77906547D01*
X282646130Y-77668452D01*
X282598511Y-77573214D01*
X282550892Y-77525595D01*
X281741369Y-78477976D02*
X281693750Y-78525595D01*
X281646130Y-78620833D01*
X281646130Y-78858928D01*
X281693750Y-78954166D01*
X281741369Y-79001785D01*
X281836607Y-79049404D01*
X281931845Y-79049404D01*
X282074702Y-79001785D01*
X282646130Y-78430357D01*
X282646130Y-79049404D01*
X263596130Y-76573214D02*
X262596130Y-76573214D01*
X262596130Y-76811309D01*
X262643750Y-76954166D01*
X262738988Y-77049404D01*
X262834226Y-77097023D01*
X263024702Y-77144642D01*
X263167559Y-77144642D01*
X263358035Y-77097023D01*
X263453273Y-77049404D01*
X263548511Y-76954166D01*
X263596130Y-76811309D01*
X263596130Y-76573214D01*
X262596130Y-78049404D02*
X262596130Y-77573214D01*
X263072321Y-77525595D01*
X263024702Y-77573214D01*
X262977083Y-77668452D01*
X262977083Y-77906547D01*
X263024702Y-78001785D01*
X263072321Y-78049404D01*
X263167559Y-78097023D01*
X263405654Y-78097023D01*
X263500892Y-78049404D01*
X263548511Y-78001785D01*
X263596130Y-77906547D01*
X263596130Y-77668452D01*
X263548511Y-77573214D01*
X263500892Y-77525595D01*
X263596130Y-79049404D02*
X263596130Y-78477976D01*
X263596130Y-78763690D02*
X262596130Y-78763690D01*
X262738988Y-78668452D01*
X262834226Y-78573214D01*
X262881845Y-78477976D01*
X244546130Y-76573214D02*
X243546130Y-76573214D01*
X243546130Y-76811309D01*
X243593750Y-76954166D01*
X243688988Y-77049404D01*
X243784226Y-77097023D01*
X243974702Y-77144642D01*
X244117559Y-77144642D01*
X244308035Y-77097023D01*
X244403273Y-77049404D01*
X244498511Y-76954166D01*
X244546130Y-76811309D01*
X244546130Y-76573214D01*
X243546130Y-78049404D02*
X243546130Y-77573214D01*
X244022321Y-77525595D01*
X243974702Y-77573214D01*
X243927083Y-77668452D01*
X243927083Y-77906547D01*
X243974702Y-78001785D01*
X244022321Y-78049404D01*
X244117559Y-78097023D01*
X244355654Y-78097023D01*
X244450892Y-78049404D01*
X244498511Y-78001785D01*
X244546130Y-77906547D01*
X244546130Y-77668452D01*
X244498511Y-77573214D01*
X244450892Y-77525595D01*
X243546130Y-78716071D02*
X243546130Y-78811309D01*
X243593750Y-78906547D01*
X243641369Y-78954166D01*
X243736607Y-79001785D01*
X243927083Y-79049404D01*
X244165178Y-79049404D01*
X244355654Y-79001785D01*
X244450892Y-78954166D01*
X244498511Y-78906547D01*
X244546130Y-78811309D01*
X244546130Y-78716071D01*
X244498511Y-78620833D01*
X244450892Y-78573214D01*
X244355654Y-78525595D01*
X244165178Y-78477976D01*
X243927083Y-78477976D01*
X243736607Y-78525595D01*
X243641369Y-78573214D01*
X243593750Y-78620833D01*
X243546130Y-78716071D01*
X219146130Y-76573214D02*
X218146130Y-76573214D01*
X218146130Y-76811309D01*
X218193750Y-76954166D01*
X218288988Y-77049404D01*
X218384226Y-77097023D01*
X218574702Y-77144642D01*
X218717559Y-77144642D01*
X218908035Y-77097023D01*
X219003273Y-77049404D01*
X219098511Y-76954166D01*
X219146130Y-76811309D01*
X219146130Y-76573214D01*
X218479464Y-78001785D02*
X219146130Y-78001785D01*
X218098511Y-77763690D02*
X218812797Y-77525595D01*
X218812797Y-78144642D01*
X219146130Y-78573214D02*
X219146130Y-78763690D01*
X219098511Y-78858928D01*
X219050892Y-78906547D01*
X218908035Y-79001785D01*
X218717559Y-79049404D01*
X218336607Y-79049404D01*
X218241369Y-79001785D01*
X218193750Y-78954166D01*
X218146130Y-78858928D01*
X218146130Y-78668452D01*
X218193750Y-78573214D01*
X218241369Y-78525595D01*
X218336607Y-78477976D01*
X218574702Y-78477976D01*
X218669940Y-78525595D01*
X218717559Y-78573214D01*
X218765178Y-78668452D01*
X218765178Y-78858928D01*
X218717559Y-78954166D01*
X218669940Y-79001785D01*
X218574702Y-79049404D01*
X196921130Y-76573214D02*
X195921130Y-76573214D01*
X195921130Y-76811309D01*
X195968750Y-76954166D01*
X196063988Y-77049404D01*
X196159226Y-77097023D01*
X196349702Y-77144642D01*
X196492559Y-77144642D01*
X196683035Y-77097023D01*
X196778273Y-77049404D01*
X196873511Y-76954166D01*
X196921130Y-76811309D01*
X196921130Y-76573214D01*
X196254464Y-78001785D02*
X196921130Y-78001785D01*
X195873511Y-77763690D02*
X196587797Y-77525595D01*
X196587797Y-78144642D01*
X196349702Y-78668452D02*
X196302083Y-78573214D01*
X196254464Y-78525595D01*
X196159226Y-78477976D01*
X196111607Y-78477976D01*
X196016369Y-78525595D01*
X195968750Y-78573214D01*
X195921130Y-78668452D01*
X195921130Y-78858928D01*
X195968750Y-78954166D01*
X196016369Y-79001785D01*
X196111607Y-79049404D01*
X196159226Y-79049404D01*
X196254464Y-79001785D01*
X196302083Y-78954166D01*
X196349702Y-78858928D01*
X196349702Y-78668452D01*
X196397321Y-78573214D01*
X196444940Y-78525595D01*
X196540178Y-78477976D01*
X196730654Y-78477976D01*
X196825892Y-78525595D01*
X196873511Y-78573214D01*
X196921130Y-78668452D01*
X196921130Y-78858928D01*
X196873511Y-78954166D01*
X196825892Y-79001785D01*
X196730654Y-79049404D01*
X196540178Y-79049404D01*
X196444940Y-79001785D01*
X196397321Y-78954166D01*
X196349702Y-78858928D01*
X169139880Y-76573214D02*
X168139880Y-76573214D01*
X168139880Y-76811309D01*
X168187500Y-76954166D01*
X168282738Y-77049404D01*
X168377976Y-77097023D01*
X168568452Y-77144642D01*
X168711309Y-77144642D01*
X168901785Y-77097023D01*
X168997023Y-77049404D01*
X169092261Y-76954166D01*
X169139880Y-76811309D01*
X169139880Y-76573214D01*
X168473214Y-78001785D02*
X169139880Y-78001785D01*
X168092261Y-77763690D02*
X168806547Y-77525595D01*
X168806547Y-78144642D01*
X168139880Y-78430357D02*
X168139880Y-79097023D01*
X169139880Y-78668452D01*
X140564880Y-76573214D02*
X139564880Y-76573214D01*
X139564880Y-76811309D01*
X139612500Y-76954166D01*
X139707738Y-77049404D01*
X139802976Y-77097023D01*
X139993452Y-77144642D01*
X140136309Y-77144642D01*
X140326785Y-77097023D01*
X140422023Y-77049404D01*
X140517261Y-76954166D01*
X140564880Y-76811309D01*
X140564880Y-76573214D01*
X139898214Y-78001785D02*
X140564880Y-78001785D01*
X139517261Y-77763690D02*
X140231547Y-77525595D01*
X140231547Y-78144642D01*
X139564880Y-78954166D02*
X139564880Y-78763690D01*
X139612500Y-78668452D01*
X139660119Y-78620833D01*
X139802976Y-78525595D01*
X139993452Y-78477976D01*
X140374404Y-78477976D01*
X140469642Y-78525595D01*
X140517261Y-78573214D01*
X140564880Y-78668452D01*
X140564880Y-78858928D01*
X140517261Y-78954166D01*
X140469642Y-79001785D01*
X140374404Y-79049404D01*
X140136309Y-79049404D01*
X140041071Y-79001785D01*
X139993452Y-78954166D01*
X139945833Y-78858928D01*
X139945833Y-78668452D01*
X139993452Y-78573214D01*
X140041071Y-78525595D01*
X140136309Y-78477976D01*
X111196130Y-76573214D02*
X110196130Y-76573214D01*
X110196130Y-76811309D01*
X110243750Y-76954166D01*
X110338988Y-77049404D01*
X110434226Y-77097023D01*
X110624702Y-77144642D01*
X110767559Y-77144642D01*
X110958035Y-77097023D01*
X111053273Y-77049404D01*
X111148511Y-76954166D01*
X111196130Y-76811309D01*
X111196130Y-76573214D01*
X110529464Y-78001785D02*
X111196130Y-78001785D01*
X110148511Y-77763690D02*
X110862797Y-77525595D01*
X110862797Y-78144642D01*
X110196130Y-79001785D02*
X110196130Y-78525595D01*
X110672321Y-78477976D01*
X110624702Y-78525595D01*
X110577083Y-78620833D01*
X110577083Y-78858928D01*
X110624702Y-78954166D01*
X110672321Y-79001785D01*
X110767559Y-79049404D01*
X111005654Y-79049404D01*
X111100892Y-79001785D01*
X111148511Y-78954166D01*
X111196130Y-78858928D01*
X111196130Y-78620833D01*
X111148511Y-78525595D01*
X111100892Y-78477976D01*
X85796130Y-76573214D02*
X84796130Y-76573214D01*
X84796130Y-76811309D01*
X84843750Y-76954166D01*
X84938988Y-77049404D01*
X85034226Y-77097023D01*
X85224702Y-77144642D01*
X85367559Y-77144642D01*
X85558035Y-77097023D01*
X85653273Y-77049404D01*
X85748511Y-76954166D01*
X85796130Y-76811309D01*
X85796130Y-76573214D01*
X85129464Y-78001785D02*
X85796130Y-78001785D01*
X84748511Y-77763690D02*
X85462797Y-77525595D01*
X85462797Y-78144642D01*
X85129464Y-78954166D02*
X85796130Y-78954166D01*
X84748511Y-78716071D02*
X85462797Y-78477976D01*
X85462797Y-79097023D01*
X61189880Y-76573214D02*
X60189880Y-76573214D01*
X60189880Y-76811309D01*
X60237500Y-76954166D01*
X60332738Y-77049404D01*
X60427976Y-77097023D01*
X60618452Y-77144642D01*
X60761309Y-77144642D01*
X60951785Y-77097023D01*
X61047023Y-77049404D01*
X61142261Y-76954166D01*
X61189880Y-76811309D01*
X61189880Y-76573214D01*
X60523214Y-78001785D02*
X61189880Y-78001785D01*
X60142261Y-77763690D02*
X60856547Y-77525595D01*
X60856547Y-78144642D01*
X60189880Y-78430357D02*
X60189880Y-79049404D01*
X60570833Y-78716071D01*
X60570833Y-78858928D01*
X60618452Y-78954166D01*
X60666071Y-79001785D01*
X60761309Y-79049404D01*
X60999404Y-79049404D01*
X61094642Y-79001785D01*
X61142261Y-78954166D01*
X61189880Y-78858928D01*
X61189880Y-78573214D01*
X61142261Y-78477976D01*
X61094642Y-78430357D01*
X38171130Y-76573214D02*
X37171130Y-76573214D01*
X37171130Y-76811309D01*
X37218750Y-76954166D01*
X37313988Y-77049404D01*
X37409226Y-77097023D01*
X37599702Y-77144642D01*
X37742559Y-77144642D01*
X37933035Y-77097023D01*
X38028273Y-77049404D01*
X38123511Y-76954166D01*
X38171130Y-76811309D01*
X38171130Y-76573214D01*
X37504464Y-78001785D02*
X38171130Y-78001785D01*
X37123511Y-77763690D02*
X37837797Y-77525595D01*
X37837797Y-78144642D01*
X37266369Y-78477976D02*
X37218750Y-78525595D01*
X37171130Y-78620833D01*
X37171130Y-78858928D01*
X37218750Y-78954166D01*
X37266369Y-79001785D01*
X37361607Y-79049404D01*
X37456845Y-79049404D01*
X37599702Y-79001785D01*
X38171130Y-78430357D01*
X38171130Y-79049404D01*
X301696130Y-57523214D02*
X300696130Y-57523214D01*
X300696130Y-57761309D01*
X300743750Y-57904166D01*
X300838988Y-57999404D01*
X300934226Y-58047023D01*
X301124702Y-58094642D01*
X301267559Y-58094642D01*
X301458035Y-58047023D01*
X301553273Y-57999404D01*
X301648511Y-57904166D01*
X301696130Y-57761309D01*
X301696130Y-57523214D01*
X301029464Y-58951785D02*
X301696130Y-58951785D01*
X300648511Y-58713690D02*
X301362797Y-58475595D01*
X301362797Y-59094642D01*
X301696130Y-59999404D02*
X301696130Y-59427976D01*
X301696130Y-59713690D02*
X300696130Y-59713690D01*
X300838988Y-59618452D01*
X300934226Y-59523214D01*
X300981845Y-59427976D01*
X282646130Y-57523214D02*
X281646130Y-57523214D01*
X281646130Y-57761309D01*
X281693750Y-57904166D01*
X281788988Y-57999404D01*
X281884226Y-58047023D01*
X282074702Y-58094642D01*
X282217559Y-58094642D01*
X282408035Y-58047023D01*
X282503273Y-57999404D01*
X282598511Y-57904166D01*
X282646130Y-57761309D01*
X282646130Y-57523214D01*
X281979464Y-58951785D02*
X282646130Y-58951785D01*
X281598511Y-58713690D02*
X282312797Y-58475595D01*
X282312797Y-59094642D01*
X281646130Y-59666071D02*
X281646130Y-59761309D01*
X281693750Y-59856547D01*
X281741369Y-59904166D01*
X281836607Y-59951785D01*
X282027083Y-59999404D01*
X282265178Y-59999404D01*
X282455654Y-59951785D01*
X282550892Y-59904166D01*
X282598511Y-59856547D01*
X282646130Y-59761309D01*
X282646130Y-59666071D01*
X282598511Y-59570833D01*
X282550892Y-59523214D01*
X282455654Y-59475595D01*
X282265178Y-59427976D01*
X282027083Y-59427976D01*
X281836607Y-59475595D01*
X281741369Y-59523214D01*
X281693750Y-59570833D01*
X281646130Y-59666071D01*
X263596130Y-57523214D02*
X262596130Y-57523214D01*
X262596130Y-57761309D01*
X262643750Y-57904166D01*
X262738988Y-57999404D01*
X262834226Y-58047023D01*
X263024702Y-58094642D01*
X263167559Y-58094642D01*
X263358035Y-58047023D01*
X263453273Y-57999404D01*
X263548511Y-57904166D01*
X263596130Y-57761309D01*
X263596130Y-57523214D01*
X262596130Y-58427976D02*
X262596130Y-59047023D01*
X262977083Y-58713690D01*
X262977083Y-58856547D01*
X263024702Y-58951785D01*
X263072321Y-58999404D01*
X263167559Y-59047023D01*
X263405654Y-59047023D01*
X263500892Y-58999404D01*
X263548511Y-58951785D01*
X263596130Y-58856547D01*
X263596130Y-58570833D01*
X263548511Y-58475595D01*
X263500892Y-58427976D01*
X263596130Y-59523214D02*
X263596130Y-59713690D01*
X263548511Y-59808928D01*
X263500892Y-59856547D01*
X263358035Y-59951785D01*
X263167559Y-59999404D01*
X262786607Y-59999404D01*
X262691369Y-59951785D01*
X262643750Y-59904166D01*
X262596130Y-59808928D01*
X262596130Y-59618452D01*
X262643750Y-59523214D01*
X262691369Y-59475595D01*
X262786607Y-59427976D01*
X263024702Y-59427976D01*
X263119940Y-59475595D01*
X263167559Y-59523214D01*
X263215178Y-59618452D01*
X263215178Y-59808928D01*
X263167559Y-59904166D01*
X263119940Y-59951785D01*
X263024702Y-59999404D01*
X244546130Y-57523214D02*
X243546130Y-57523214D01*
X243546130Y-57761309D01*
X243593750Y-57904166D01*
X243688988Y-57999404D01*
X243784226Y-58047023D01*
X243974702Y-58094642D01*
X244117559Y-58094642D01*
X244308035Y-58047023D01*
X244403273Y-57999404D01*
X244498511Y-57904166D01*
X244546130Y-57761309D01*
X244546130Y-57523214D01*
X243546130Y-58427976D02*
X243546130Y-59047023D01*
X243927083Y-58713690D01*
X243927083Y-58856547D01*
X243974702Y-58951785D01*
X244022321Y-58999404D01*
X244117559Y-59047023D01*
X244355654Y-59047023D01*
X244450892Y-58999404D01*
X244498511Y-58951785D01*
X244546130Y-58856547D01*
X244546130Y-58570833D01*
X244498511Y-58475595D01*
X244450892Y-58427976D01*
X243974702Y-59618452D02*
X243927083Y-59523214D01*
X243879464Y-59475595D01*
X243784226Y-59427976D01*
X243736607Y-59427976D01*
X243641369Y-59475595D01*
X243593750Y-59523214D01*
X243546130Y-59618452D01*
X243546130Y-59808928D01*
X243593750Y-59904166D01*
X243641369Y-59951785D01*
X243736607Y-59999404D01*
X243784226Y-59999404D01*
X243879464Y-59951785D01*
X243927083Y-59904166D01*
X243974702Y-59808928D01*
X243974702Y-59618452D01*
X244022321Y-59523214D01*
X244069940Y-59475595D01*
X244165178Y-59427976D01*
X244355654Y-59427976D01*
X244450892Y-59475595D01*
X244498511Y-59523214D01*
X244546130Y-59618452D01*
X244546130Y-59808928D01*
X244498511Y-59904166D01*
X244450892Y-59951785D01*
X244355654Y-59999404D01*
X244165178Y-59999404D01*
X244069940Y-59951785D01*
X244022321Y-59904166D01*
X243974702Y-59808928D01*
X225496130Y-57523214D02*
X224496130Y-57523214D01*
X224496130Y-57761309D01*
X224543750Y-57904166D01*
X224638988Y-57999404D01*
X224734226Y-58047023D01*
X224924702Y-58094642D01*
X225067559Y-58094642D01*
X225258035Y-58047023D01*
X225353273Y-57999404D01*
X225448511Y-57904166D01*
X225496130Y-57761309D01*
X225496130Y-57523214D01*
X224496130Y-58427976D02*
X224496130Y-59047023D01*
X224877083Y-58713690D01*
X224877083Y-58856547D01*
X224924702Y-58951785D01*
X224972321Y-58999404D01*
X225067559Y-59047023D01*
X225305654Y-59047023D01*
X225400892Y-58999404D01*
X225448511Y-58951785D01*
X225496130Y-58856547D01*
X225496130Y-58570833D01*
X225448511Y-58475595D01*
X225400892Y-58427976D01*
X224496130Y-59380357D02*
X224496130Y-60047023D01*
X225496130Y-59618452D01*
X206446130Y-57523214D02*
X205446130Y-57523214D01*
X205446130Y-57761309D01*
X205493750Y-57904166D01*
X205588988Y-57999404D01*
X205684226Y-58047023D01*
X205874702Y-58094642D01*
X206017559Y-58094642D01*
X206208035Y-58047023D01*
X206303273Y-57999404D01*
X206398511Y-57904166D01*
X206446130Y-57761309D01*
X206446130Y-57523214D01*
X205446130Y-58427976D02*
X205446130Y-59047023D01*
X205827083Y-58713690D01*
X205827083Y-58856547D01*
X205874702Y-58951785D01*
X205922321Y-58999404D01*
X206017559Y-59047023D01*
X206255654Y-59047023D01*
X206350892Y-58999404D01*
X206398511Y-58951785D01*
X206446130Y-58856547D01*
X206446130Y-58570833D01*
X206398511Y-58475595D01*
X206350892Y-58427976D01*
X205446130Y-59904166D02*
X205446130Y-59713690D01*
X205493750Y-59618452D01*
X205541369Y-59570833D01*
X205684226Y-59475595D01*
X205874702Y-59427976D01*
X206255654Y-59427976D01*
X206350892Y-59475595D01*
X206398511Y-59523214D01*
X206446130Y-59618452D01*
X206446130Y-59808928D01*
X206398511Y-59904166D01*
X206350892Y-59951785D01*
X206255654Y-59999404D01*
X206017559Y-59999404D01*
X205922321Y-59951785D01*
X205874702Y-59904166D01*
X205827083Y-59808928D01*
X205827083Y-59618452D01*
X205874702Y-59523214D01*
X205922321Y-59475595D01*
X206017559Y-59427976D01*
X187396130Y-57523214D02*
X186396130Y-57523214D01*
X186396130Y-57761309D01*
X186443750Y-57904166D01*
X186538988Y-57999404D01*
X186634226Y-58047023D01*
X186824702Y-58094642D01*
X186967559Y-58094642D01*
X187158035Y-58047023D01*
X187253273Y-57999404D01*
X187348511Y-57904166D01*
X187396130Y-57761309D01*
X187396130Y-57523214D01*
X186396130Y-58427976D02*
X186396130Y-59047023D01*
X186777083Y-58713690D01*
X186777083Y-58856547D01*
X186824702Y-58951785D01*
X186872321Y-58999404D01*
X186967559Y-59047023D01*
X187205654Y-59047023D01*
X187300892Y-58999404D01*
X187348511Y-58951785D01*
X187396130Y-58856547D01*
X187396130Y-58570833D01*
X187348511Y-58475595D01*
X187300892Y-58427976D01*
X186396130Y-59951785D02*
X186396130Y-59475595D01*
X186872321Y-59427976D01*
X186824702Y-59475595D01*
X186777083Y-59570833D01*
X186777083Y-59808928D01*
X186824702Y-59904166D01*
X186872321Y-59951785D01*
X186967559Y-59999404D01*
X187205654Y-59999404D01*
X187300892Y-59951785D01*
X187348511Y-59904166D01*
X187396130Y-59808928D01*
X187396130Y-59570833D01*
X187348511Y-59475595D01*
X187300892Y-59427976D01*
X170028880Y-58158214D02*
X169028880Y-58158214D01*
X169028880Y-58396309D01*
X169076500Y-58539166D01*
X169171738Y-58634404D01*
X169266976Y-58682023D01*
X169457452Y-58729642D01*
X169600309Y-58729642D01*
X169790785Y-58682023D01*
X169886023Y-58634404D01*
X169981261Y-58539166D01*
X170028880Y-58396309D01*
X170028880Y-58158214D01*
X169028880Y-59062976D02*
X169028880Y-59682023D01*
X169409833Y-59348690D01*
X169409833Y-59491547D01*
X169457452Y-59586785D01*
X169505071Y-59634404D01*
X169600309Y-59682023D01*
X169838404Y-59682023D01*
X169933642Y-59634404D01*
X169981261Y-59586785D01*
X170028880Y-59491547D01*
X170028880Y-59205833D01*
X169981261Y-59110595D01*
X169933642Y-59062976D01*
X169362214Y-60539166D02*
X170028880Y-60539166D01*
X168981261Y-60301071D02*
X169695547Y-60062976D01*
X169695547Y-60682023D01*
X149296130Y-57523214D02*
X148296130Y-57523214D01*
X148296130Y-57761309D01*
X148343750Y-57904166D01*
X148438988Y-57999404D01*
X148534226Y-58047023D01*
X148724702Y-58094642D01*
X148867559Y-58094642D01*
X149058035Y-58047023D01*
X149153273Y-57999404D01*
X149248511Y-57904166D01*
X149296130Y-57761309D01*
X149296130Y-57523214D01*
X148296130Y-58427976D02*
X148296130Y-59047023D01*
X148677083Y-58713690D01*
X148677083Y-58856547D01*
X148724702Y-58951785D01*
X148772321Y-58999404D01*
X148867559Y-59047023D01*
X149105654Y-59047023D01*
X149200892Y-58999404D01*
X149248511Y-58951785D01*
X149296130Y-58856547D01*
X149296130Y-58570833D01*
X149248511Y-58475595D01*
X149200892Y-58427976D01*
X148296130Y-59380357D02*
X148296130Y-59999404D01*
X148677083Y-59666071D01*
X148677083Y-59808928D01*
X148724702Y-59904166D01*
X148772321Y-59951785D01*
X148867559Y-59999404D01*
X149105654Y-59999404D01*
X149200892Y-59951785D01*
X149248511Y-59904166D01*
X149296130Y-59808928D01*
X149296130Y-59523214D01*
X149248511Y-59427976D01*
X149200892Y-59380357D01*
X130246130Y-57523214D02*
X129246130Y-57523214D01*
X129246130Y-57761309D01*
X129293750Y-57904166D01*
X129388988Y-57999404D01*
X129484226Y-58047023D01*
X129674702Y-58094642D01*
X129817559Y-58094642D01*
X130008035Y-58047023D01*
X130103273Y-57999404D01*
X130198511Y-57904166D01*
X130246130Y-57761309D01*
X130246130Y-57523214D01*
X129246130Y-58427976D02*
X129246130Y-59047023D01*
X129627083Y-58713690D01*
X129627083Y-58856547D01*
X129674702Y-58951785D01*
X129722321Y-58999404D01*
X129817559Y-59047023D01*
X130055654Y-59047023D01*
X130150892Y-58999404D01*
X130198511Y-58951785D01*
X130246130Y-58856547D01*
X130246130Y-58570833D01*
X130198511Y-58475595D01*
X130150892Y-58427976D01*
X129341369Y-59427976D02*
X129293750Y-59475595D01*
X129246130Y-59570833D01*
X129246130Y-59808928D01*
X129293750Y-59904166D01*
X129341369Y-59951785D01*
X129436607Y-59999404D01*
X129531845Y-59999404D01*
X129674702Y-59951785D01*
X130246130Y-59380357D01*
X130246130Y-59999404D01*
X111196130Y-57523214D02*
X110196130Y-57523214D01*
X110196130Y-57761309D01*
X110243750Y-57904166D01*
X110338988Y-57999404D01*
X110434226Y-58047023D01*
X110624702Y-58094642D01*
X110767559Y-58094642D01*
X110958035Y-58047023D01*
X111053273Y-57999404D01*
X111148511Y-57904166D01*
X111196130Y-57761309D01*
X111196130Y-57523214D01*
X110196130Y-58427976D02*
X110196130Y-59047023D01*
X110577083Y-58713690D01*
X110577083Y-58856547D01*
X110624702Y-58951785D01*
X110672321Y-58999404D01*
X110767559Y-59047023D01*
X111005654Y-59047023D01*
X111100892Y-58999404D01*
X111148511Y-58951785D01*
X111196130Y-58856547D01*
X111196130Y-58570833D01*
X111148511Y-58475595D01*
X111100892Y-58427976D01*
X111196130Y-59999404D02*
X111196130Y-59427976D01*
X111196130Y-59713690D02*
X110196130Y-59713690D01*
X110338988Y-59618452D01*
X110434226Y-59523214D01*
X110481845Y-59427976D01*
X92146130Y-57523214D02*
X91146130Y-57523214D01*
X91146130Y-57761309D01*
X91193750Y-57904166D01*
X91288988Y-57999404D01*
X91384226Y-58047023D01*
X91574702Y-58094642D01*
X91717559Y-58094642D01*
X91908035Y-58047023D01*
X92003273Y-57999404D01*
X92098511Y-57904166D01*
X92146130Y-57761309D01*
X92146130Y-57523214D01*
X91146130Y-58427976D02*
X91146130Y-59047023D01*
X91527083Y-58713690D01*
X91527083Y-58856547D01*
X91574702Y-58951785D01*
X91622321Y-58999404D01*
X91717559Y-59047023D01*
X91955654Y-59047023D01*
X92050892Y-58999404D01*
X92098511Y-58951785D01*
X92146130Y-58856547D01*
X92146130Y-58570833D01*
X92098511Y-58475595D01*
X92050892Y-58427976D01*
X91146130Y-59666071D02*
X91146130Y-59761309D01*
X91193750Y-59856547D01*
X91241369Y-59904166D01*
X91336607Y-59951785D01*
X91527083Y-59999404D01*
X91765178Y-59999404D01*
X91955654Y-59951785D01*
X92050892Y-59904166D01*
X92098511Y-59856547D01*
X92146130Y-59761309D01*
X92146130Y-59666071D01*
X92098511Y-59570833D01*
X92050892Y-59523214D01*
X91955654Y-59475595D01*
X91765178Y-59427976D01*
X91527083Y-59427976D01*
X91336607Y-59475595D01*
X91241369Y-59523214D01*
X91193750Y-59570833D01*
X91146130Y-59666071D01*
X73096130Y-57523214D02*
X72096130Y-57523214D01*
X72096130Y-57761309D01*
X72143750Y-57904166D01*
X72238988Y-57999404D01*
X72334226Y-58047023D01*
X72524702Y-58094642D01*
X72667559Y-58094642D01*
X72858035Y-58047023D01*
X72953273Y-57999404D01*
X73048511Y-57904166D01*
X73096130Y-57761309D01*
X73096130Y-57523214D01*
X72191369Y-58475595D02*
X72143750Y-58523214D01*
X72096130Y-58618452D01*
X72096130Y-58856547D01*
X72143750Y-58951785D01*
X72191369Y-58999404D01*
X72286607Y-59047023D01*
X72381845Y-59047023D01*
X72524702Y-58999404D01*
X73096130Y-58427976D01*
X73096130Y-59047023D01*
X73096130Y-59523214D02*
X73096130Y-59713690D01*
X73048511Y-59808928D01*
X73000892Y-59856547D01*
X72858035Y-59951785D01*
X72667559Y-59999404D01*
X72286607Y-59999404D01*
X72191369Y-59951785D01*
X72143750Y-59904166D01*
X72096130Y-59808928D01*
X72096130Y-59618452D01*
X72143750Y-59523214D01*
X72191369Y-59475595D01*
X72286607Y-59427976D01*
X72524702Y-59427976D01*
X72619940Y-59475595D01*
X72667559Y-59523214D01*
X72715178Y-59618452D01*
X72715178Y-59808928D01*
X72667559Y-59904166D01*
X72619940Y-59951785D01*
X72524702Y-59999404D01*
X44298880Y-59047214D02*
X43298880Y-59047214D01*
X43298880Y-59285309D01*
X43346500Y-59428166D01*
X43441738Y-59523404D01*
X43536976Y-59571023D01*
X43727452Y-59618642D01*
X43870309Y-59618642D01*
X44060785Y-59571023D01*
X44156023Y-59523404D01*
X44251261Y-59428166D01*
X44298880Y-59285309D01*
X44298880Y-59047214D01*
X43394119Y-59999595D02*
X43346500Y-60047214D01*
X43298880Y-60142452D01*
X43298880Y-60380547D01*
X43346500Y-60475785D01*
X43394119Y-60523404D01*
X43489357Y-60571023D01*
X43584595Y-60571023D01*
X43727452Y-60523404D01*
X44298880Y-59951976D01*
X44298880Y-60571023D01*
X43727452Y-61142452D02*
X43679833Y-61047214D01*
X43632214Y-60999595D01*
X43536976Y-60951976D01*
X43489357Y-60951976D01*
X43394119Y-60999595D01*
X43346500Y-61047214D01*
X43298880Y-61142452D01*
X43298880Y-61332928D01*
X43346500Y-61428166D01*
X43394119Y-61475785D01*
X43489357Y-61523404D01*
X43536976Y-61523404D01*
X43632214Y-61475785D01*
X43679833Y-61428166D01*
X43727452Y-61332928D01*
X43727452Y-61142452D01*
X43775071Y-61047214D01*
X43822690Y-60999595D01*
X43917928Y-60951976D01*
X44108404Y-60951976D01*
X44203642Y-60999595D01*
X44251261Y-61047214D01*
X44298880Y-61142452D01*
X44298880Y-61332928D01*
X44251261Y-61428166D01*
X44203642Y-61475785D01*
X44108404Y-61523404D01*
X43917928Y-61523404D01*
X43822690Y-61475785D01*
X43775071Y-61428166D01*
X43727452Y-61332928D01*
X298521130Y-41648214D02*
X297521130Y-41648214D01*
X297521130Y-41886309D01*
X297568750Y-42029166D01*
X297663988Y-42124404D01*
X297759226Y-42172023D01*
X297949702Y-42219642D01*
X298092559Y-42219642D01*
X298283035Y-42172023D01*
X298378273Y-42124404D01*
X298473511Y-42029166D01*
X298521130Y-41886309D01*
X298521130Y-41648214D01*
X297616369Y-42600595D02*
X297568750Y-42648214D01*
X297521130Y-42743452D01*
X297521130Y-42981547D01*
X297568750Y-43076785D01*
X297616369Y-43124404D01*
X297711607Y-43172023D01*
X297806845Y-43172023D01*
X297949702Y-43124404D01*
X298521130Y-42552976D01*
X298521130Y-43172023D01*
X297521130Y-43505357D02*
X297521130Y-44172023D01*
X298521130Y-43743452D01*
X258833630Y-38473214D02*
X257833630Y-38473214D01*
X257833630Y-38711309D01*
X257881250Y-38854166D01*
X257976488Y-38949404D01*
X258071726Y-38997023D01*
X258262202Y-39044642D01*
X258405059Y-39044642D01*
X258595535Y-38997023D01*
X258690773Y-38949404D01*
X258786011Y-38854166D01*
X258833630Y-38711309D01*
X258833630Y-38473214D01*
X257928869Y-39425595D02*
X257881250Y-39473214D01*
X257833630Y-39568452D01*
X257833630Y-39806547D01*
X257881250Y-39901785D01*
X257928869Y-39949404D01*
X258024107Y-39997023D01*
X258119345Y-39997023D01*
X258262202Y-39949404D01*
X258833630Y-39377976D01*
X258833630Y-39997023D01*
X257833630Y-40854166D02*
X257833630Y-40663690D01*
X257881250Y-40568452D01*
X257928869Y-40520833D01*
X258071726Y-40425595D01*
X258262202Y-40377976D01*
X258643154Y-40377976D01*
X258738392Y-40425595D01*
X258786011Y-40473214D01*
X258833630Y-40568452D01*
X258833630Y-40758928D01*
X258786011Y-40854166D01*
X258738392Y-40901785D01*
X258643154Y-40949404D01*
X258405059Y-40949404D01*
X258309821Y-40901785D01*
X258262202Y-40854166D01*
X258214583Y-40758928D01*
X258214583Y-40568452D01*
X258262202Y-40473214D01*
X258309821Y-40425595D01*
X258405059Y-40377976D01*
X239783630Y-38473214D02*
X238783630Y-38473214D01*
X238783630Y-38711309D01*
X238831250Y-38854166D01*
X238926488Y-38949404D01*
X239021726Y-38997023D01*
X239212202Y-39044642D01*
X239355059Y-39044642D01*
X239545535Y-38997023D01*
X239640773Y-38949404D01*
X239736011Y-38854166D01*
X239783630Y-38711309D01*
X239783630Y-38473214D01*
X238878869Y-39425595D02*
X238831250Y-39473214D01*
X238783630Y-39568452D01*
X238783630Y-39806547D01*
X238831250Y-39901785D01*
X238878869Y-39949404D01*
X238974107Y-39997023D01*
X239069345Y-39997023D01*
X239212202Y-39949404D01*
X239783630Y-39377976D01*
X239783630Y-39997023D01*
X238783630Y-40901785D02*
X238783630Y-40425595D01*
X239259821Y-40377976D01*
X239212202Y-40425595D01*
X239164583Y-40520833D01*
X239164583Y-40758928D01*
X239212202Y-40854166D01*
X239259821Y-40901785D01*
X239355059Y-40949404D01*
X239593154Y-40949404D01*
X239688392Y-40901785D01*
X239736011Y-40854166D01*
X239783630Y-40758928D01*
X239783630Y-40520833D01*
X239736011Y-40425595D01*
X239688392Y-40377976D01*
X220733630Y-38473214D02*
X219733630Y-38473214D01*
X219733630Y-38711309D01*
X219781250Y-38854166D01*
X219876488Y-38949404D01*
X219971726Y-38997023D01*
X220162202Y-39044642D01*
X220305059Y-39044642D01*
X220495535Y-38997023D01*
X220590773Y-38949404D01*
X220686011Y-38854166D01*
X220733630Y-38711309D01*
X220733630Y-38473214D01*
X219828869Y-39425595D02*
X219781250Y-39473214D01*
X219733630Y-39568452D01*
X219733630Y-39806547D01*
X219781250Y-39901785D01*
X219828869Y-39949404D01*
X219924107Y-39997023D01*
X220019345Y-39997023D01*
X220162202Y-39949404D01*
X220733630Y-39377976D01*
X220733630Y-39997023D01*
X220066964Y-40854166D02*
X220733630Y-40854166D01*
X219686011Y-40616071D02*
X220400297Y-40377976D01*
X220400297Y-40997023D01*
X201683630Y-38473214D02*
X200683630Y-38473214D01*
X200683630Y-38711309D01*
X200731250Y-38854166D01*
X200826488Y-38949404D01*
X200921726Y-38997023D01*
X201112202Y-39044642D01*
X201255059Y-39044642D01*
X201445535Y-38997023D01*
X201540773Y-38949404D01*
X201636011Y-38854166D01*
X201683630Y-38711309D01*
X201683630Y-38473214D01*
X200778869Y-39425595D02*
X200731250Y-39473214D01*
X200683630Y-39568452D01*
X200683630Y-39806547D01*
X200731250Y-39901785D01*
X200778869Y-39949404D01*
X200874107Y-39997023D01*
X200969345Y-39997023D01*
X201112202Y-39949404D01*
X201683630Y-39377976D01*
X201683630Y-39997023D01*
X200683630Y-40330357D02*
X200683630Y-40949404D01*
X201064583Y-40616071D01*
X201064583Y-40758928D01*
X201112202Y-40854166D01*
X201159821Y-40901785D01*
X201255059Y-40949404D01*
X201493154Y-40949404D01*
X201588392Y-40901785D01*
X201636011Y-40854166D01*
X201683630Y-40758928D01*
X201683630Y-40473214D01*
X201636011Y-40377976D01*
X201588392Y-40330357D01*
X182633630Y-38473214D02*
X181633630Y-38473214D01*
X181633630Y-38711309D01*
X181681250Y-38854166D01*
X181776488Y-38949404D01*
X181871726Y-38997023D01*
X182062202Y-39044642D01*
X182205059Y-39044642D01*
X182395535Y-38997023D01*
X182490773Y-38949404D01*
X182586011Y-38854166D01*
X182633630Y-38711309D01*
X182633630Y-38473214D01*
X181728869Y-39425595D02*
X181681250Y-39473214D01*
X181633630Y-39568452D01*
X181633630Y-39806547D01*
X181681250Y-39901785D01*
X181728869Y-39949404D01*
X181824107Y-39997023D01*
X181919345Y-39997023D01*
X182062202Y-39949404D01*
X182633630Y-39377976D01*
X182633630Y-39997023D01*
X181728869Y-40377976D02*
X181681250Y-40425595D01*
X181633630Y-40520833D01*
X181633630Y-40758928D01*
X181681250Y-40854166D01*
X181728869Y-40901785D01*
X181824107Y-40949404D01*
X181919345Y-40949404D01*
X182062202Y-40901785D01*
X182633630Y-40330357D01*
X182633630Y-40949404D01*
X163583630Y-38473214D02*
X162583630Y-38473214D01*
X162583630Y-38711309D01*
X162631250Y-38854166D01*
X162726488Y-38949404D01*
X162821726Y-38997023D01*
X163012202Y-39044642D01*
X163155059Y-39044642D01*
X163345535Y-38997023D01*
X163440773Y-38949404D01*
X163536011Y-38854166D01*
X163583630Y-38711309D01*
X163583630Y-38473214D01*
X162678869Y-39425595D02*
X162631250Y-39473214D01*
X162583630Y-39568452D01*
X162583630Y-39806547D01*
X162631250Y-39901785D01*
X162678869Y-39949404D01*
X162774107Y-39997023D01*
X162869345Y-39997023D01*
X163012202Y-39949404D01*
X163583630Y-39377976D01*
X163583630Y-39997023D01*
X163583630Y-40949404D02*
X163583630Y-40377976D01*
X163583630Y-40663690D02*
X162583630Y-40663690D01*
X162726488Y-40568452D01*
X162821726Y-40473214D01*
X162869345Y-40377976D01*
X144533630Y-38473214D02*
X143533630Y-38473214D01*
X143533630Y-38711309D01*
X143581250Y-38854166D01*
X143676488Y-38949404D01*
X143771726Y-38997023D01*
X143962202Y-39044642D01*
X144105059Y-39044642D01*
X144295535Y-38997023D01*
X144390773Y-38949404D01*
X144486011Y-38854166D01*
X144533630Y-38711309D01*
X144533630Y-38473214D01*
X143628869Y-39425595D02*
X143581250Y-39473214D01*
X143533630Y-39568452D01*
X143533630Y-39806547D01*
X143581250Y-39901785D01*
X143628869Y-39949404D01*
X143724107Y-39997023D01*
X143819345Y-39997023D01*
X143962202Y-39949404D01*
X144533630Y-39377976D01*
X144533630Y-39997023D01*
X143533630Y-40616071D02*
X143533630Y-40711309D01*
X143581250Y-40806547D01*
X143628869Y-40854166D01*
X143724107Y-40901785D01*
X143914583Y-40949404D01*
X144152678Y-40949404D01*
X144343154Y-40901785D01*
X144438392Y-40854166D01*
X144486011Y-40806547D01*
X144533630Y-40711309D01*
X144533630Y-40616071D01*
X144486011Y-40520833D01*
X144438392Y-40473214D01*
X144343154Y-40425595D01*
X144152678Y-40377976D01*
X143914583Y-40377976D01*
X143724107Y-40425595D01*
X143628869Y-40473214D01*
X143581250Y-40520833D01*
X143533630Y-40616071D01*
X125483630Y-38473214D02*
X124483630Y-38473214D01*
X124483630Y-38711309D01*
X124531250Y-38854166D01*
X124626488Y-38949404D01*
X124721726Y-38997023D01*
X124912202Y-39044642D01*
X125055059Y-39044642D01*
X125245535Y-38997023D01*
X125340773Y-38949404D01*
X125436011Y-38854166D01*
X125483630Y-38711309D01*
X125483630Y-38473214D01*
X125483630Y-39997023D02*
X125483630Y-39425595D01*
X125483630Y-39711309D02*
X124483630Y-39711309D01*
X124626488Y-39616071D01*
X124721726Y-39520833D01*
X124769345Y-39425595D01*
X125483630Y-40473214D02*
X125483630Y-40663690D01*
X125436011Y-40758928D01*
X125388392Y-40806547D01*
X125245535Y-40901785D01*
X125055059Y-40949404D01*
X124674107Y-40949404D01*
X124578869Y-40901785D01*
X124531250Y-40854166D01*
X124483630Y-40758928D01*
X124483630Y-40568452D01*
X124531250Y-40473214D01*
X124578869Y-40425595D01*
X124674107Y-40377976D01*
X124912202Y-40377976D01*
X125007440Y-40425595D01*
X125055059Y-40473214D01*
X125102678Y-40568452D01*
X125102678Y-40758928D01*
X125055059Y-40854166D01*
X125007440Y-40901785D01*
X124912202Y-40949404D01*
X106433630Y-38473214D02*
X105433630Y-38473214D01*
X105433630Y-38711309D01*
X105481250Y-38854166D01*
X105576488Y-38949404D01*
X105671726Y-38997023D01*
X105862202Y-39044642D01*
X106005059Y-39044642D01*
X106195535Y-38997023D01*
X106290773Y-38949404D01*
X106386011Y-38854166D01*
X106433630Y-38711309D01*
X106433630Y-38473214D01*
X106433630Y-39997023D02*
X106433630Y-39425595D01*
X106433630Y-39711309D02*
X105433630Y-39711309D01*
X105576488Y-39616071D01*
X105671726Y-39520833D01*
X105719345Y-39425595D01*
X105862202Y-40568452D02*
X105814583Y-40473214D01*
X105766964Y-40425595D01*
X105671726Y-40377976D01*
X105624107Y-40377976D01*
X105528869Y-40425595D01*
X105481250Y-40473214D01*
X105433630Y-40568452D01*
X105433630Y-40758928D01*
X105481250Y-40854166D01*
X105528869Y-40901785D01*
X105624107Y-40949404D01*
X105671726Y-40949404D01*
X105766964Y-40901785D01*
X105814583Y-40854166D01*
X105862202Y-40758928D01*
X105862202Y-40568452D01*
X105909821Y-40473214D01*
X105957440Y-40425595D01*
X106052678Y-40377976D01*
X106243154Y-40377976D01*
X106338392Y-40425595D01*
X106386011Y-40473214D01*
X106433630Y-40568452D01*
X106433630Y-40758928D01*
X106386011Y-40854166D01*
X106338392Y-40901785D01*
X106243154Y-40949404D01*
X106052678Y-40949404D01*
X105957440Y-40901785D01*
X105909821Y-40854166D01*
X105862202Y-40758928D01*
X87383630Y-38473214D02*
X86383630Y-38473214D01*
X86383630Y-38711309D01*
X86431250Y-38854166D01*
X86526488Y-38949404D01*
X86621726Y-38997023D01*
X86812202Y-39044642D01*
X86955059Y-39044642D01*
X87145535Y-38997023D01*
X87240773Y-38949404D01*
X87336011Y-38854166D01*
X87383630Y-38711309D01*
X87383630Y-38473214D01*
X87383630Y-39997023D02*
X87383630Y-39425595D01*
X87383630Y-39711309D02*
X86383630Y-39711309D01*
X86526488Y-39616071D01*
X86621726Y-39520833D01*
X86669345Y-39425595D01*
X86383630Y-40330357D02*
X86383630Y-40997023D01*
X87383630Y-40568452D01*
X68333630Y-38473214D02*
X67333630Y-38473214D01*
X67333630Y-38711309D01*
X67381250Y-38854166D01*
X67476488Y-38949404D01*
X67571726Y-38997023D01*
X67762202Y-39044642D01*
X67905059Y-39044642D01*
X68095535Y-38997023D01*
X68190773Y-38949404D01*
X68286011Y-38854166D01*
X68333630Y-38711309D01*
X68333630Y-38473214D01*
X68333630Y-39997023D02*
X68333630Y-39425595D01*
X68333630Y-39711309D02*
X67333630Y-39711309D01*
X67476488Y-39616071D01*
X67571726Y-39520833D01*
X67619345Y-39425595D01*
X67333630Y-40854166D02*
X67333630Y-40663690D01*
X67381250Y-40568452D01*
X67428869Y-40520833D01*
X67571726Y-40425595D01*
X67762202Y-40377976D01*
X68143154Y-40377976D01*
X68238392Y-40425595D01*
X68286011Y-40473214D01*
X68333630Y-40568452D01*
X68333630Y-40758928D01*
X68286011Y-40854166D01*
X68238392Y-40901785D01*
X68143154Y-40949404D01*
X67905059Y-40949404D01*
X67809821Y-40901785D01*
X67762202Y-40854166D01*
X67714583Y-40758928D01*
X67714583Y-40568452D01*
X67762202Y-40473214D01*
X67809821Y-40425595D01*
X67905059Y-40377976D01*
X40805880Y-47506214D02*
X39805880Y-47506214D01*
X39805880Y-47744309D01*
X39853500Y-47887166D01*
X39948738Y-47982404D01*
X40043976Y-48030023D01*
X40234452Y-48077642D01*
X40377309Y-48077642D01*
X40567785Y-48030023D01*
X40663023Y-47982404D01*
X40758261Y-47887166D01*
X40805880Y-47744309D01*
X40805880Y-47506214D01*
X40805880Y-49030023D02*
X40805880Y-48458595D01*
X40805880Y-48744309D02*
X39805880Y-48744309D01*
X39948738Y-48649071D01*
X40043976Y-48553833D01*
X40091595Y-48458595D01*
X39805880Y-49934785D02*
X39805880Y-49458595D01*
X40282071Y-49410976D01*
X40234452Y-49458595D01*
X40186833Y-49553833D01*
X40186833Y-49791928D01*
X40234452Y-49887166D01*
X40282071Y-49934785D01*
X40377309Y-49982404D01*
X40615404Y-49982404D01*
X40710642Y-49934785D01*
X40758261Y-49887166D01*
X40805880Y-49791928D01*
X40805880Y-49553833D01*
X40758261Y-49458595D01*
X40710642Y-49410976D01*
X297727380Y-19423214D02*
X296727380Y-19423214D01*
X296727380Y-19661309D01*
X296775000Y-19804166D01*
X296870238Y-19899404D01*
X296965476Y-19947023D01*
X297155952Y-19994642D01*
X297298809Y-19994642D01*
X297489285Y-19947023D01*
X297584523Y-19899404D01*
X297679761Y-19804166D01*
X297727380Y-19661309D01*
X297727380Y-19423214D01*
X297727380Y-20947023D02*
X297727380Y-20375595D01*
X297727380Y-20661309D02*
X296727380Y-20661309D01*
X296870238Y-20566071D01*
X296965476Y-20470833D01*
X297013095Y-20375595D01*
X297060714Y-21804166D02*
X297727380Y-21804166D01*
X296679761Y-21566071D02*
X297394047Y-21327976D01*
X297394047Y-21947023D01*
X273121130Y-19423214D02*
X272121130Y-19423214D01*
X272121130Y-19661309D01*
X272168750Y-19804166D01*
X272263988Y-19899404D01*
X272359226Y-19947023D01*
X272549702Y-19994642D01*
X272692559Y-19994642D01*
X272883035Y-19947023D01*
X272978273Y-19899404D01*
X273073511Y-19804166D01*
X273121130Y-19661309D01*
X273121130Y-19423214D01*
X273121130Y-20947023D02*
X273121130Y-20375595D01*
X273121130Y-20661309D02*
X272121130Y-20661309D01*
X272263988Y-20566071D01*
X272359226Y-20470833D01*
X272406845Y-20375595D01*
X272121130Y-21280357D02*
X272121130Y-21899404D01*
X272502083Y-21566071D01*
X272502083Y-21708928D01*
X272549702Y-21804166D01*
X272597321Y-21851785D01*
X272692559Y-21899404D01*
X272930654Y-21899404D01*
X273025892Y-21851785D01*
X273073511Y-21804166D01*
X273121130Y-21708928D01*
X273121130Y-21423214D01*
X273073511Y-21327976D01*
X273025892Y-21280357D01*
X254071130Y-19423214D02*
X253071130Y-19423214D01*
X253071130Y-19661309D01*
X253118750Y-19804166D01*
X253213988Y-19899404D01*
X253309226Y-19947023D01*
X253499702Y-19994642D01*
X253642559Y-19994642D01*
X253833035Y-19947023D01*
X253928273Y-19899404D01*
X254023511Y-19804166D01*
X254071130Y-19661309D01*
X254071130Y-19423214D01*
X254071130Y-20947023D02*
X254071130Y-20375595D01*
X254071130Y-20661309D02*
X253071130Y-20661309D01*
X253213988Y-20566071D01*
X253309226Y-20470833D01*
X253356845Y-20375595D01*
X253166369Y-21327976D02*
X253118750Y-21375595D01*
X253071130Y-21470833D01*
X253071130Y-21708928D01*
X253118750Y-21804166D01*
X253166369Y-21851785D01*
X253261607Y-21899404D01*
X253356845Y-21899404D01*
X253499702Y-21851785D01*
X254071130Y-21280357D01*
X254071130Y-21899404D01*
X235021130Y-19423214D02*
X234021130Y-19423214D01*
X234021130Y-19661309D01*
X234068750Y-19804166D01*
X234163988Y-19899404D01*
X234259226Y-19947023D01*
X234449702Y-19994642D01*
X234592559Y-19994642D01*
X234783035Y-19947023D01*
X234878273Y-19899404D01*
X234973511Y-19804166D01*
X235021130Y-19661309D01*
X235021130Y-19423214D01*
X235021130Y-20947023D02*
X235021130Y-20375595D01*
X235021130Y-20661309D02*
X234021130Y-20661309D01*
X234163988Y-20566071D01*
X234259226Y-20470833D01*
X234306845Y-20375595D01*
X235021130Y-21899404D02*
X235021130Y-21327976D01*
X235021130Y-21613690D02*
X234021130Y-21613690D01*
X234163988Y-21518452D01*
X234259226Y-21423214D01*
X234306845Y-21327976D01*
X216764880Y-24519214D02*
X215764880Y-24519214D01*
X215764880Y-24757309D01*
X215812500Y-24900166D01*
X215907738Y-24995404D01*
X216002976Y-25043023D01*
X216193452Y-25090642D01*
X216336309Y-25090642D01*
X216526785Y-25043023D01*
X216622023Y-24995404D01*
X216717261Y-24900166D01*
X216764880Y-24757309D01*
X216764880Y-24519214D01*
X216764880Y-26043023D02*
X216764880Y-25471595D01*
X216764880Y-25757309D02*
X215764880Y-25757309D01*
X215907738Y-25662071D01*
X216002976Y-25566833D01*
X216050595Y-25471595D01*
X215764880Y-26662071D02*
X215764880Y-26757309D01*
X215812500Y-26852547D01*
X215860119Y-26900166D01*
X215955357Y-26947785D01*
X216145833Y-26995404D01*
X216383928Y-26995404D01*
X216574404Y-26947785D01*
X216669642Y-26900166D01*
X216717261Y-26852547D01*
X216764880Y-26757309D01*
X216764880Y-26662071D01*
X216717261Y-26566833D01*
X216669642Y-26519214D01*
X216574404Y-26471595D01*
X216383928Y-26423976D01*
X216145833Y-26423976D01*
X215955357Y-26471595D01*
X215860119Y-26519214D01*
X215812500Y-26566833D01*
X215764880Y-26662071D01*
X196921130Y-19899404D02*
X195921130Y-19899404D01*
X195921130Y-20137500D01*
X195968750Y-20280357D01*
X196063988Y-20375595D01*
X196159226Y-20423214D01*
X196349702Y-20470833D01*
X196492559Y-20470833D01*
X196683035Y-20423214D01*
X196778273Y-20375595D01*
X196873511Y-20280357D01*
X196921130Y-20137500D01*
X196921130Y-19899404D01*
X196921130Y-20947023D02*
X196921130Y-21137500D01*
X196873511Y-21232738D01*
X196825892Y-21280357D01*
X196683035Y-21375595D01*
X196492559Y-21423214D01*
X196111607Y-21423214D01*
X196016369Y-21375595D01*
X195968750Y-21327976D01*
X195921130Y-21232738D01*
X195921130Y-21042261D01*
X195968750Y-20947023D01*
X196016369Y-20899404D01*
X196111607Y-20851785D01*
X196349702Y-20851785D01*
X196444940Y-20899404D01*
X196492559Y-20947023D01*
X196540178Y-21042261D01*
X196540178Y-21232738D01*
X196492559Y-21327976D01*
X196444940Y-21375595D01*
X196349702Y-21423214D01*
X177871130Y-19899404D02*
X176871130Y-19899404D01*
X176871130Y-20137500D01*
X176918750Y-20280357D01*
X177013988Y-20375595D01*
X177109226Y-20423214D01*
X177299702Y-20470833D01*
X177442559Y-20470833D01*
X177633035Y-20423214D01*
X177728273Y-20375595D01*
X177823511Y-20280357D01*
X177871130Y-20137500D01*
X177871130Y-19899404D01*
X177299702Y-21042261D02*
X177252083Y-20947023D01*
X177204464Y-20899404D01*
X177109226Y-20851785D01*
X177061607Y-20851785D01*
X176966369Y-20899404D01*
X176918750Y-20947023D01*
X176871130Y-21042261D01*
X176871130Y-21232738D01*
X176918750Y-21327976D01*
X176966369Y-21375595D01*
X177061607Y-21423214D01*
X177109226Y-21423214D01*
X177204464Y-21375595D01*
X177252083Y-21327976D01*
X177299702Y-21232738D01*
X177299702Y-21042261D01*
X177347321Y-20947023D01*
X177394940Y-20899404D01*
X177490178Y-20851785D01*
X177680654Y-20851785D01*
X177775892Y-20899404D01*
X177823511Y-20947023D01*
X177871130Y-21042261D01*
X177871130Y-21232738D01*
X177823511Y-21327976D01*
X177775892Y-21375595D01*
X177680654Y-21423214D01*
X177490178Y-21423214D01*
X177394940Y-21375595D01*
X177347321Y-21327976D01*
X177299702Y-21232738D01*
X158821130Y-19899404D02*
X157821130Y-19899404D01*
X157821130Y-20137500D01*
X157868750Y-20280357D01*
X157963988Y-20375595D01*
X158059226Y-20423214D01*
X158249702Y-20470833D01*
X158392559Y-20470833D01*
X158583035Y-20423214D01*
X158678273Y-20375595D01*
X158773511Y-20280357D01*
X158821130Y-20137500D01*
X158821130Y-19899404D01*
X157821130Y-20804166D02*
X157821130Y-21470833D01*
X158821130Y-21042261D01*
X139771130Y-19899404D02*
X138771130Y-19899404D01*
X138771130Y-20137500D01*
X138818750Y-20280357D01*
X138913988Y-20375595D01*
X139009226Y-20423214D01*
X139199702Y-20470833D01*
X139342559Y-20470833D01*
X139533035Y-20423214D01*
X139628273Y-20375595D01*
X139723511Y-20280357D01*
X139771130Y-20137500D01*
X139771130Y-19899404D01*
X138771130Y-21327976D02*
X138771130Y-21137500D01*
X138818750Y-21042261D01*
X138866369Y-20994642D01*
X139009226Y-20899404D01*
X139199702Y-20851785D01*
X139580654Y-20851785D01*
X139675892Y-20899404D01*
X139723511Y-20947023D01*
X139771130Y-21042261D01*
X139771130Y-21232738D01*
X139723511Y-21327976D01*
X139675892Y-21375595D01*
X139580654Y-21423214D01*
X139342559Y-21423214D01*
X139247321Y-21375595D01*
X139199702Y-21327976D01*
X139152083Y-21232738D01*
X139152083Y-21042261D01*
X139199702Y-20947023D01*
X139247321Y-20899404D01*
X139342559Y-20851785D01*
X121514880Y-25106404D02*
X120514880Y-25106404D01*
X120514880Y-25344500D01*
X120562500Y-25487357D01*
X120657738Y-25582595D01*
X120752976Y-25630214D01*
X120943452Y-25677833D01*
X121086309Y-25677833D01*
X121276785Y-25630214D01*
X121372023Y-25582595D01*
X121467261Y-25487357D01*
X121514880Y-25344500D01*
X121514880Y-25106404D01*
X120514880Y-26582595D02*
X120514880Y-26106404D01*
X120991071Y-26058785D01*
X120943452Y-26106404D01*
X120895833Y-26201642D01*
X120895833Y-26439738D01*
X120943452Y-26534976D01*
X120991071Y-26582595D01*
X121086309Y-26630214D01*
X121324404Y-26630214D01*
X121419642Y-26582595D01*
X121467261Y-26534976D01*
X121514880Y-26439738D01*
X121514880Y-26201642D01*
X121467261Y-26106404D01*
X121419642Y-26058785D01*
X101671130Y-19899404D02*
X100671130Y-19899404D01*
X100671130Y-20137500D01*
X100718750Y-20280357D01*
X100813988Y-20375595D01*
X100909226Y-20423214D01*
X101099702Y-20470833D01*
X101242559Y-20470833D01*
X101433035Y-20423214D01*
X101528273Y-20375595D01*
X101623511Y-20280357D01*
X101671130Y-20137500D01*
X101671130Y-19899404D01*
X101004464Y-21327976D02*
X101671130Y-21327976D01*
X100623511Y-21089880D02*
X101337797Y-20851785D01*
X101337797Y-21470833D01*
X82621130Y-19899404D02*
X81621130Y-19899404D01*
X81621130Y-20137500D01*
X81668750Y-20280357D01*
X81763988Y-20375595D01*
X81859226Y-20423214D01*
X82049702Y-20470833D01*
X82192559Y-20470833D01*
X82383035Y-20423214D01*
X82478273Y-20375595D01*
X82573511Y-20280357D01*
X82621130Y-20137500D01*
X82621130Y-19899404D01*
X81621130Y-20804166D02*
X81621130Y-21423214D01*
X82002083Y-21089880D01*
X82002083Y-21232738D01*
X82049702Y-21327976D01*
X82097321Y-21375595D01*
X82192559Y-21423214D01*
X82430654Y-21423214D01*
X82525892Y-21375595D01*
X82573511Y-21327976D01*
X82621130Y-21232738D01*
X82621130Y-20947023D01*
X82573511Y-20851785D01*
X82525892Y-20804166D01*
X63571130Y-19899404D02*
X62571130Y-19899404D01*
X62571130Y-20137500D01*
X62618750Y-20280357D01*
X62713988Y-20375595D01*
X62809226Y-20423214D01*
X62999702Y-20470833D01*
X63142559Y-20470833D01*
X63333035Y-20423214D01*
X63428273Y-20375595D01*
X63523511Y-20280357D01*
X63571130Y-20137500D01*
X63571130Y-19899404D01*
X62666369Y-20851785D02*
X62618750Y-20899404D01*
X62571130Y-20994642D01*
X62571130Y-21232738D01*
X62618750Y-21327976D01*
X62666369Y-21375595D01*
X62761607Y-21423214D01*
X62856845Y-21423214D01*
X62999702Y-21375595D01*
X63571130Y-20804166D01*
X63571130Y-21423214D01*
X18549380Y-19089904D02*
X17549380Y-19089904D01*
X17549380Y-19328000D01*
X17597000Y-19470857D01*
X17692238Y-19566095D01*
X17787476Y-19613714D01*
X17977952Y-19661333D01*
X18120809Y-19661333D01*
X18311285Y-19613714D01*
X18406523Y-19566095D01*
X18501761Y-19470857D01*
X18549380Y-19328000D01*
X18549380Y-19089904D01*
X18549380Y-20613714D02*
X18549380Y-20042285D01*
X18549380Y-20328000D02*
X17549380Y-20328000D01*
X17692238Y-20232761D01*
X17787476Y-20137523D01*
X17835095Y-20042285D01*
X32805166Y-28122642D02*
X32852785Y-28170261D01*
X32995642Y-28217880D01*
X33090880Y-28217880D01*
X33233738Y-28170261D01*
X33328976Y-28075023D01*
X33376595Y-27979785D01*
X33424214Y-27789309D01*
X33424214Y-27646452D01*
X33376595Y-27455976D01*
X33328976Y-27360738D01*
X33233738Y-27265500D01*
X33090880Y-27217880D01*
X32995642Y-27217880D01*
X32852785Y-27265500D01*
X32805166Y-27313119D01*
X32233738Y-27646452D02*
X32328976Y-27598833D01*
X32376595Y-27551214D01*
X32424214Y-27455976D01*
X32424214Y-27408357D01*
X32376595Y-27313119D01*
X32328976Y-27265500D01*
X32233738Y-27217880D01*
X32043261Y-27217880D01*
X31948023Y-27265500D01*
X31900404Y-27313119D01*
X31852785Y-27408357D01*
X31852785Y-27455976D01*
X31900404Y-27551214D01*
X31948023Y-27598833D01*
X32043261Y-27646452D01*
X32233738Y-27646452D01*
X32328976Y-27694071D01*
X32376595Y-27741690D01*
X32424214Y-27836928D01*
X32424214Y-28027404D01*
X32376595Y-28122642D01*
X32328976Y-28170261D01*
X32233738Y-28217880D01*
X32043261Y-28217880D01*
X31948023Y-28170261D01*
X31900404Y-28122642D01*
X31852785Y-28027404D01*
X31852785Y-27836928D01*
X31900404Y-27741690D01*
X31948023Y-27694071D01*
X32043261Y-27646452D01*
X26455166Y-28122642D02*
X26502785Y-28170261D01*
X26645642Y-28217880D01*
X26740880Y-28217880D01*
X26883738Y-28170261D01*
X26978976Y-28075023D01*
X27026595Y-27979785D01*
X27074214Y-27789309D01*
X27074214Y-27646452D01*
X27026595Y-27455976D01*
X26978976Y-27360738D01*
X26883738Y-27265500D01*
X26740880Y-27217880D01*
X26645642Y-27217880D01*
X26502785Y-27265500D01*
X26455166Y-27313119D01*
X26121833Y-27217880D02*
X25455166Y-27217880D01*
X25883738Y-28217880D01*
X17184166Y-56824642D02*
X17231785Y-56872261D01*
X17374642Y-56919880D01*
X17469880Y-56919880D01*
X17612738Y-56872261D01*
X17707976Y-56777023D01*
X17755595Y-56681785D01*
X17803214Y-56491309D01*
X17803214Y-56348452D01*
X17755595Y-56157976D01*
X17707976Y-56062738D01*
X17612738Y-55967500D01*
X17469880Y-55919880D01*
X17374642Y-55919880D01*
X17231785Y-55967500D01*
X17184166Y-56015119D01*
X16327023Y-55919880D02*
X16517500Y-55919880D01*
X16612738Y-55967500D01*
X16660357Y-56015119D01*
X16755595Y-56157976D01*
X16803214Y-56348452D01*
X16803214Y-56729404D01*
X16755595Y-56824642D01*
X16707976Y-56872261D01*
X16612738Y-56919880D01*
X16422261Y-56919880D01*
X16327023Y-56872261D01*
X16279404Y-56824642D01*
X16231785Y-56729404D01*
X16231785Y-56491309D01*
X16279404Y-56396071D01*
X16327023Y-56348452D01*
X16422261Y-56300833D01*
X16612738Y-56300833D01*
X16707976Y-56348452D01*
X16755595Y-56396071D01*
X16803214Y-56491309D01*
X37885666Y-34901142D02*
X37933285Y-34948761D01*
X38076142Y-34996380D01*
X38171380Y-34996380D01*
X38314238Y-34948761D01*
X38409476Y-34853523D01*
X38457095Y-34758285D01*
X38504714Y-34567809D01*
X38504714Y-34424952D01*
X38457095Y-34234476D01*
X38409476Y-34139238D01*
X38314238Y-34044000D01*
X38171380Y-33996380D01*
X38076142Y-33996380D01*
X37933285Y-34044000D01*
X37885666Y-34091619D01*
X36980904Y-33996380D02*
X37457095Y-33996380D01*
X37504714Y-34472571D01*
X37457095Y-34424952D01*
X37361857Y-34377333D01*
X37123761Y-34377333D01*
X37028523Y-34424952D01*
X36980904Y-34472571D01*
X36933285Y-34567809D01*
X36933285Y-34805904D01*
X36980904Y-34901142D01*
X37028523Y-34948761D01*
X37123761Y-34996380D01*
X37361857Y-34996380D01*
X37457095Y-34948761D01*
X37504714Y-34901142D01*
X39790666Y-42775142D02*
X39838285Y-42822761D01*
X39981142Y-42870380D01*
X40076380Y-42870380D01*
X40219238Y-42822761D01*
X40314476Y-42727523D01*
X40362095Y-42632285D01*
X40409714Y-42441809D01*
X40409714Y-42298952D01*
X40362095Y-42108476D01*
X40314476Y-42013238D01*
X40219238Y-41918000D01*
X40076380Y-41870380D01*
X39981142Y-41870380D01*
X39838285Y-41918000D01*
X39790666Y-41965619D01*
X38933523Y-42203714D02*
X38933523Y-42870380D01*
X39171619Y-41822761D02*
X39409714Y-42537047D01*
X38790666Y-42537047D01*
X52109166Y-32186642D02*
X52156785Y-32234261D01*
X52299642Y-32281880D01*
X52394880Y-32281880D01*
X52537738Y-32234261D01*
X52632976Y-32139023D01*
X52680595Y-32043785D01*
X52728214Y-31853309D01*
X52728214Y-31710452D01*
X52680595Y-31519976D01*
X52632976Y-31424738D01*
X52537738Y-31329500D01*
X52394880Y-31281880D01*
X52299642Y-31281880D01*
X52156785Y-31329500D01*
X52109166Y-31377119D01*
X51775833Y-31281880D02*
X51156785Y-31281880D01*
X51490119Y-31662833D01*
X51347261Y-31662833D01*
X51252023Y-31710452D01*
X51204404Y-31758071D01*
X51156785Y-31853309D01*
X51156785Y-32091404D01*
X51204404Y-32186642D01*
X51252023Y-32234261D01*
X51347261Y-32281880D01*
X51632976Y-32281880D01*
X51728214Y-32234261D01*
X51775833Y-32186642D01*
X51220666Y-39092142D02*
X51268285Y-39139761D01*
X51411142Y-39187380D01*
X51506380Y-39187380D01*
X51649238Y-39139761D01*
X51744476Y-39044523D01*
X51792095Y-38949285D01*
X51839714Y-38758809D01*
X51839714Y-38615952D01*
X51792095Y-38425476D01*
X51744476Y-38330238D01*
X51649238Y-38235000D01*
X51506380Y-38187380D01*
X51411142Y-38187380D01*
X51268285Y-38235000D01*
X51220666Y-38282619D01*
X50839714Y-38282619D02*
X50792095Y-38235000D01*
X50696857Y-38187380D01*
X50458761Y-38187380D01*
X50363523Y-38235000D01*
X50315904Y-38282619D01*
X50268285Y-38377857D01*
X50268285Y-38473095D01*
X50315904Y-38615952D01*
X50887333Y-39187380D01*
X50268285Y-39187380D01*
X49315666Y-29186142D02*
X49363285Y-29233761D01*
X49506142Y-29281380D01*
X49601380Y-29281380D01*
X49744238Y-29233761D01*
X49839476Y-29138523D01*
X49887095Y-29043285D01*
X49934714Y-28852809D01*
X49934714Y-28709952D01*
X49887095Y-28519476D01*
X49839476Y-28424238D01*
X49744238Y-28329000D01*
X49601380Y-28281380D01*
X49506142Y-28281380D01*
X49363285Y-28329000D01*
X49315666Y-28376619D01*
X48363285Y-29281380D02*
X48934714Y-29281380D01*
X48649000Y-29281380D02*
X48649000Y-28281380D01*
X48744238Y-28424238D01*
X48839476Y-28519476D01*
X48934714Y-28567095D01*
M02*
