G04 #@! TF.GenerationSoftware,KiCad,Pcbnew,(5.1.4-0-10_14)*
G04 #@! TF.CreationDate,2024-02-26T14:42:05+09:00*
G04 #@! TF.ProjectId,carry53-pcb,63617272-7935-4332-9d70-63622e6b6963,rev?*
G04 #@! TF.SameCoordinates,Original*
G04 #@! TF.FileFunction,Legend,Top*
G04 #@! TF.FilePolarity,Positive*
%FSLAX46Y46*%
G04 Gerber Fmt 4.6, Leading zero omitted, Abs format (unit mm)*
G04 Created by KiCad (PCBNEW (5.1.4-0-10_14)) date 2024-02-26 14:42:05*
%MOMM*%
%LPD*%
G04 APERTURE LIST*
%ADD10C,0.150000*%
%ADD11C,0.120000*%
G04 APERTURE END LIST*
D10*
X18879380Y-13124142D02*
X18831761Y-13171761D01*
X18688904Y-13219380D01*
X18593666Y-13219380D01*
X18450809Y-13171761D01*
X18355571Y-13076523D01*
X18307952Y-12981285D01*
X18260333Y-12790809D01*
X18260333Y-12647952D01*
X18307952Y-12457476D01*
X18355571Y-12362238D01*
X18450809Y-12267000D01*
X18593666Y-12219380D01*
X18688904Y-12219380D01*
X18831761Y-12267000D01*
X18879380Y-12314619D01*
X19736523Y-13219380D02*
X19736523Y-12695571D01*
X19688904Y-12600333D01*
X19593666Y-12552714D01*
X19403190Y-12552714D01*
X19307952Y-12600333D01*
X19736523Y-13171761D02*
X19641285Y-13219380D01*
X19403190Y-13219380D01*
X19307952Y-13171761D01*
X19260333Y-13076523D01*
X19260333Y-12981285D01*
X19307952Y-12886047D01*
X19403190Y-12838428D01*
X19641285Y-12838428D01*
X19736523Y-12790809D01*
X20212714Y-13219380D02*
X20212714Y-12552714D01*
X20212714Y-12743190D02*
X20260333Y-12647952D01*
X20307952Y-12600333D01*
X20403190Y-12552714D01*
X20498428Y-12552714D01*
X20831761Y-13219380D02*
X20831761Y-12552714D01*
X20831761Y-12743190D02*
X20879380Y-12647952D01*
X20927000Y-12600333D01*
X21022238Y-12552714D01*
X21117476Y-12552714D01*
X21355571Y-12552714D02*
X21593666Y-13219380D01*
X21831761Y-12552714D02*
X21593666Y-13219380D01*
X21498428Y-13457476D01*
X21450809Y-13505095D01*
X21355571Y-13552714D01*
X22688904Y-12219380D02*
X22212714Y-12219380D01*
X22165095Y-12695571D01*
X22212714Y-12647952D01*
X22307952Y-12600333D01*
X22546047Y-12600333D01*
X22641285Y-12647952D01*
X22688904Y-12695571D01*
X22736523Y-12790809D01*
X22736523Y-13028904D01*
X22688904Y-13124142D01*
X22641285Y-13171761D01*
X22546047Y-13219380D01*
X22307952Y-13219380D01*
X22212714Y-13171761D01*
X22165095Y-13124142D01*
X23069857Y-12219380D02*
X23688904Y-12219380D01*
X23355571Y-12600333D01*
X23498428Y-12600333D01*
X23593666Y-12647952D01*
X23641285Y-12695571D01*
X23688904Y-12790809D01*
X23688904Y-13028904D01*
X23641285Y-13124142D01*
X23593666Y-13171761D01*
X23498428Y-13219380D01*
X23212714Y-13219380D01*
X23117476Y-13171761D01*
X23069857Y-13124142D01*
X24784142Y-12552714D02*
X25022238Y-13219380D01*
X25260333Y-12552714D01*
X26165095Y-13219380D02*
X25593666Y-13219380D01*
X25879380Y-13219380D02*
X25879380Y-12219380D01*
X25784142Y-12362238D01*
X25688904Y-12457476D01*
X25593666Y-12505095D01*
X26593666Y-13124142D02*
X26641285Y-13171761D01*
X26593666Y-13219380D01*
X26546047Y-13171761D01*
X26593666Y-13124142D01*
X26593666Y-13219380D01*
X27260333Y-12219380D02*
X27355571Y-12219380D01*
X27450809Y-12267000D01*
X27498428Y-12314619D01*
X27546047Y-12409857D01*
X27593666Y-12600333D01*
X27593666Y-12838428D01*
X27546047Y-13028904D01*
X27498428Y-13124142D01*
X27450809Y-13171761D01*
X27355571Y-13219380D01*
X27260333Y-13219380D01*
X27165095Y-13171761D01*
X27117476Y-13124142D01*
X27069857Y-13028904D01*
X27022238Y-12838428D01*
X27022238Y-12600333D01*
X27069857Y-12409857D01*
X27117476Y-12314619D01*
X27165095Y-12267000D01*
X27260333Y-12219380D01*
D11*
X37472000Y-14672000D02*
X38802000Y-14672000D01*
X37472000Y-16002000D02*
X37472000Y-14672000D01*
X37472000Y-17272000D02*
X40132000Y-17272000D01*
X40132000Y-17272000D02*
X40132000Y-22412000D01*
X37472000Y-17272000D02*
X37472000Y-22412000D01*
X37472000Y-22412000D02*
X40132000Y-22412000D01*
X40139000Y-14672000D02*
X41469000Y-14672000D01*
X40139000Y-16002000D02*
X40139000Y-14672000D01*
X40139000Y-17272000D02*
X42799000Y-17272000D01*
X42799000Y-17272000D02*
X42799000Y-19872000D01*
X40139000Y-17272000D02*
X40139000Y-19872000D01*
X40139000Y-19872000D02*
X42799000Y-19872000D01*
D10*
X39611666Y-22760380D02*
X39611666Y-23474666D01*
X39564047Y-23617523D01*
X39468809Y-23712761D01*
X39325952Y-23760380D01*
X39230714Y-23760380D01*
X40040238Y-22855619D02*
X40087857Y-22808000D01*
X40183095Y-22760380D01*
X40421190Y-22760380D01*
X40516428Y-22808000D01*
X40564047Y-22855619D01*
X40611666Y-22950857D01*
X40611666Y-23046095D01*
X40564047Y-23188952D01*
X39992619Y-23760380D01*
X40611666Y-23760380D01*
X42151666Y-20347380D02*
X42151666Y-21061666D01*
X42104047Y-21204523D01*
X42008809Y-21299761D01*
X41865952Y-21347380D01*
X41770714Y-21347380D01*
X43151666Y-21347380D02*
X42580238Y-21347380D01*
X42865952Y-21347380D02*
X42865952Y-20347380D01*
X42770714Y-20490238D01*
X42675476Y-20585476D01*
X42580238Y-20633095D01*
M02*
