M48
; DRILL file {KiCad (5.1.4-0-10_14)} date 2024 February 26, Monday 14:42:00
; FORMAT={-:-/ absolute / inch / decimal}
; #@! TF.CreationDate,2024-02-26T14:42:00+09:00
; #@! TF.GenerationSoftware,Kicad,Pcbnew,(5.1.4-0-10_14)
; #@! TF.FileFunction,NonPlated,1,2,NPTH
FMAT,2
INCH
T1C0.0256
T2C0.0472
T3C0.0689
T4C0.0748
T5C0.0866
T6C0.1200
T7C0.1339
T8C0.1570
%
G90
G05
T1
X0.6836Y-1.1987
X0.6836Y-1.4263
T2
X10.7632Y-1.8529
X2.7945Y-1.8529
X2.0445Y-1.8529
X9.357Y-1.1029
X2.7007Y-3.3529
X3.357Y-1.1029
X7.9507Y-3.3529
X4.107Y-1.1029
X3.732Y-2.6029
X2.607Y-1.1029
X3.5445Y-1.8529
X8.0445Y-1.8529
X10.482Y-3.3529
X4.857Y-3.3529
X7.482Y-2.6029
X5.982Y-2.6029
X9.732Y-3.3529
X9.732Y-2.6029
X11.232Y-2.6029
X0.9195Y-1.1029
X4.2945Y-1.8529
X11.232Y-3.3529
X8.232Y-2.6029
X7.857Y-1.1029
X5.607Y-1.1029
X4.482Y-2.6029
X8.8882Y-3.3529
X6.5445Y-1.8529
X2.232Y-2.6029
X5.232Y-2.6029
X1.857Y-1.1029
X5.982Y-3.3529
X11.0445Y-1.1029
X8.7945Y-1.8529
X6.357Y-1.1029
X10.482Y-2.6029
X0.8257Y-3.3529
X3.732Y-3.3529
X4.857Y-1.1029
X5.0445Y-1.8529
X1.107Y-2.6029
X10.107Y-1.1029
X8.607Y-1.1029
X1.7632Y-3.3529
X8.982Y-2.6029
X6.732Y-2.6029
X2.982Y-2.6029
X7.2945Y-1.8529
X7.0132Y-3.3529
X9.5445Y-1.8529
X7.107Y-1.1029
X5.7945Y-1.8529
X1.0132Y-1.8529
T3
X3.7375Y-3.1875
X1.8625Y-0.9375
X2.2625Y-0.9375
X7.9562Y-3.1875
X8.3562Y-3.1875
X7.4875Y-2.4375
X7.8875Y-2.4375
X5.9875Y-2.4375
X6.3875Y-2.4375
X7.0187Y-3.1875
X8.8Y-1.6875
X9.2Y-1.6875
X3.55Y-1.6875
X3.95Y-1.6875
X2.6125Y-0.9375
X3.0125Y-0.9375
X8.05Y-1.6875
X8.45Y-1.6875
X2.2375Y-2.4375
X2.6375Y-2.4375
X5.2375Y-2.4375
X2.8Y-1.6875
X3.2Y-1.6875
X7.1125Y-0.9375
X1.4187Y-1.6875
X10.4875Y-2.4375
X2.05Y-1.6875
X4.8875Y-2.4375
X2.45Y-1.6875
X10.8875Y-2.4375
X5.9875Y-3.1875
X11.2375Y-2.4375
X7.7Y-1.6875
X10.1375Y-2.4375
X5.2625Y-3.1875
X4.4875Y-2.4375
X1.0188Y-1.6875
X11.2375Y-3.1875
X5.6375Y-2.4375
X11.6375Y-2.4375
X6.3875Y-3.1875
X7.3Y-1.6875
X7.8625Y-0.9375
X8.2625Y-0.9375
X7.5125Y-0.9375
X11.6375Y-3.1875
X4.8625Y-3.1875
X9.7375Y-2.4375
X4.1375Y-3.1875
X6.55Y-1.6875
X6.95Y-1.6875
X11.45Y-0.9375
X6.7625Y-0.9375
X11.05Y-0.9375
X6.3625Y-0.9375
X8.9875Y-2.4375
X9.3875Y-2.4375
X2.9875Y-2.4375
X3.3875Y-2.4375
X6.2Y-1.6875
X9.7375Y-3.1875
X10.1375Y-3.1875
X5.8Y-1.6875
X6.0125Y-0.9375
X3.1062Y-3.1875
X5.6125Y-0.9375
X10.1125Y-0.9375
X10.5125Y-0.9375
X2.7062Y-3.1875
X8.2375Y-2.4375
X8.6375Y-2.4375
X5.2625Y-0.9375
X1.5125Y-2.4375
X0.925Y-0.9375
X10.7687Y-1.6875
X11.1687Y-1.6875
X1.1125Y-2.4375
X2.1687Y-3.1875
X5.45Y-1.6875
X1.325Y-0.9375
X4.8625Y-0.9375
X3.3625Y-0.9375
X7.1375Y-2.4375
X9.7625Y-0.9375
X6.7375Y-2.4375
X8.8937Y-3.1875
X9.2937Y-3.1875
X5.05Y-1.6875
X9.95Y-1.6875
X3.7625Y-0.9375
X9.3625Y-0.9375
X1.7688Y-3.1875
X9.55Y-1.6875
X7.4188Y-3.1875
X4.1125Y-0.9375
X4.5125Y-0.9375
X10.4875Y-3.1875
X10.8875Y-3.1875
X3.7375Y-2.4375
X4.1375Y-2.4375
X9.0125Y-0.9375
X0.8312Y-3.1875
X1.2312Y-3.1875
X4.3Y-1.6875
X4.7Y-1.6875
X8.6125Y-0.9375
T4
X2.6897Y-3.1875
X3.1228Y-3.1875
X8.0335Y-1.6875
X8.596Y-0.9375
X9.029Y-0.9375
X0.8147Y-3.1875
X1.2478Y-3.1875
X6.5335Y-1.6875
X6.9665Y-1.6875
X2.221Y-2.4375
X2.654Y-2.4375
X5.221Y-2.4375
X5.654Y-2.4375
X10.471Y-2.4375
X10.904Y-2.4375
X8.971Y-2.4375
X8.4665Y-1.6875
X11.221Y-2.4375
X11.654Y-2.4375
X5.0335Y-1.6875
X5.4665Y-1.6875
X3.346Y-0.9375
X3.779Y-0.9375
X7.9397Y-3.1875
X8.3728Y-3.1875
X5.971Y-2.4375
X6.404Y-2.4375
X9.721Y-2.4375
X10.154Y-2.4375
X5.596Y-0.9375
X6.029Y-0.9375
X7.471Y-2.4375
X7.904Y-2.4375
X3.5335Y-1.6875
X3.9665Y-1.6875
X2.7835Y-1.6875
X3.2165Y-1.6875
X9.721Y-3.1875
X10.154Y-3.1875
X0.9085Y-0.9375
X1.3415Y-0.9375
X8.221Y-2.4375
X8.8772Y-3.1875
X9.3103Y-3.1875
X8.279Y-0.9375
X4.471Y-2.4375
X4.904Y-2.4375
X7.846Y-0.9375
X1.846Y-0.9375
X2.279Y-0.9375
X1.096Y-2.4375
X1.529Y-2.4375
X11.221Y-3.1875
X4.2835Y-1.6875
X11.654Y-3.1875
X4.7165Y-1.6875
X8.654Y-2.4375
X9.404Y-2.4375
X6.346Y-0.9375
X6.779Y-0.9375
X10.096Y-0.9375
X1.7522Y-3.1875
X2.1853Y-3.1875
X3.721Y-3.1875
X4.846Y-0.9375
X5.279Y-0.9375
X10.529Y-0.9375
X9.2165Y-1.6875
X11.0335Y-0.9375
X11.4665Y-0.9375
X5.971Y-3.1875
X6.404Y-3.1875
X8.7835Y-1.6875
X4.154Y-3.1875
X7.2835Y-1.6875
X7.7165Y-1.6875
X2.971Y-2.4375
X1.0022Y-1.6875
X3.404Y-2.4375
X6.721Y-2.4375
X7.154Y-2.4375
X7.0022Y-3.1875
X7.4353Y-3.1875
X4.846Y-3.1875
X5.279Y-3.1875
X2.596Y-0.9375
X3.029Y-0.9375
X1.4353Y-1.6875
X7.096Y-0.9375
X7.529Y-0.9375
X9.5335Y-1.6875
X9.9665Y-1.6875
X5.7835Y-1.6875
X6.2165Y-1.6875
X10.7522Y-1.6875
X11.1853Y-1.6875
X2.0335Y-1.6875
X2.4665Y-1.6875
X9.346Y-0.9375
X9.779Y-0.9375
X4.096Y-0.9375
X4.529Y-0.9375
X10.471Y-3.1875
X10.904Y-3.1875
X3.721Y-2.4375
X4.154Y-2.4375
T5
X0.5925Y-0.6025
X2.6875Y-2.0625
X10.1675Y-2.0633
X4.4995Y-3.3184
X11.7925Y-0.5925
X4.6875Y-0.7833
X6.5637Y-2.0633
X0.5925Y-3.5325
X8.4375Y-0.7883
X8.6225Y-3.3167
X11.7875Y-3.5275
T6
X0.8438Y-2.1625
X1.7812Y-2.1625
X10.5Y-1.4125
X11.4375Y-1.4125
T7
X3.1875Y-2.4375
X7.2188Y-3.1875
X4.6875Y-2.4375
X4.5Y-1.6875
X9.75Y-1.6875
X5.0625Y-3.1875
X8.25Y-1.6875
X10.9688Y-1.6875
X2.8125Y-0.9375
X7.3125Y-0.9375
X2.25Y-1.6875
X6.0Y-1.6875
X6.1875Y-2.4375
X7.6875Y-2.4375
X9.9375Y-3.1875
X8.0625Y-0.9375
X3.75Y-1.6875
X9.9375Y-2.4375
X4.3125Y-0.9375
X3.9375Y-2.4375
X2.9062Y-3.1875
X3.0Y-1.6875
X3.5625Y-0.9375
X1.2188Y-1.6875
X9.5625Y-0.9375
X10.6875Y-3.1875
X11.4375Y-3.1875
X8.1562Y-3.1875
X11.4375Y-2.4375
X5.8125Y-0.9375
X5.25Y-1.6875
X8.4375Y-2.4375
X8.8125Y-0.9375
X2.0625Y-0.9375
X1.125Y-0.9375
X9.0938Y-3.1875
X1.3125Y-2.4375
X2.4375Y-2.4375
X9.1875Y-2.4375
X6.5625Y-0.9375
X9.0Y-1.6875
X5.4375Y-2.4375
X1.0312Y-3.1875
X10.3125Y-0.9375
X6.75Y-1.6875
X11.25Y-0.9375
X1.9688Y-3.1875
X3.9375Y-3.1875
X5.0625Y-0.9375
X6.1875Y-3.1875
X10.6875Y-2.4375
X7.5Y-1.6875
X6.9375Y-2.4375
T8
X9.9375Y-3.1875
X6.0Y-1.6875
X5.8125Y-0.9375
X10.5Y-2.0125
X10.9688Y-1.6875
X11.4375Y-2.0125
X5.0625Y-0.9375
X8.8125Y-0.9375
X2.0625Y-0.9375
X5.25Y-1.6875
X8.4375Y-2.4375
X9.0Y-1.6875
X3.5625Y-0.9375
X1.0312Y-3.1875
X4.5Y-1.6875
X1.9688Y-3.1875
X9.75Y-1.6875
X1.3125Y-2.4375
X9.0938Y-3.1875
X2.9062Y-3.1875
X0.8438Y-2.7625
X1.7812Y-2.7625
X9.5625Y-0.9375
X1.125Y-0.9375
X6.9375Y-2.4375
X8.1562Y-3.1875
X7.6875Y-2.4375
X6.1875Y-2.4375
X7.2188Y-3.1875
X5.4375Y-2.4375
X6.1875Y-3.1875
X3.75Y-1.6875
X8.25Y-1.6875
X3.0Y-1.6875
X7.5Y-1.6875
X8.0625Y-0.9375
X2.25Y-1.6875
X7.3125Y-0.9375
X2.4375Y-2.4375
X6.75Y-1.6875
X11.25Y-0.9375
X4.3125Y-0.9375
X3.9375Y-2.4375
X6.5625Y-0.9375
X1.2188Y-1.6875
X11.4375Y-2.4375
X2.8125Y-0.9375
X11.4375Y-3.1875
X4.6875Y-2.4375
X5.0625Y-3.1875
X10.6875Y-2.4375
X9.9375Y-2.4375
X10.6875Y-3.1875
X3.9375Y-3.1875
X9.1875Y-2.4375
X3.1875Y-2.4375
X10.3125Y-0.9375
T0
M30
