M48
; DRILL file {KiCad (5.1.4-0-10_14)} date 2024 February 26, Monday 14:42:00
; FORMAT={-:-/ absolute / inch / decimal}
; #@! TF.CreationDate,2024-02-26T14:42:00+09:00
; #@! TF.GenerationSoftware,Kicad,Pcbnew,(5.1.4-0-10_14)
; #@! TF.FileFunction,Plated,1,2,PTH
FMAT,2
INCH
T1C0.0157
T2C0.0236
T3C0.0394
T4C0.0472
T5C0.0579
%
G90
G05
T1
X0.81Y-1.5031
X0.8575Y-1.2075
X0.8575Y-1.4225
X0.9631Y-2.045
X1.015Y-1.9631
X1.025Y-1.2631
X1.025Y-1.3631
X1.06Y-2.0081
X1.115Y-1.9431
X1.34Y-1.295
X1.4265Y-1.2566
X1.4265Y-1.3016
X1.4575Y-1.1475
X1.46Y-1.07
X1.4725Y-1.3075
X1.485Y-0.99
X1.57Y-1.2381
X1.58Y-1.1981
X1.59Y-1.7375
X1.59Y-2.055
X1.605Y-1.12
X1.625Y-2.0131
X1.63Y-1.025
X1.6425Y-1.7025
X1.77Y-1.005
X1.77Y-1.055
X1.9Y-1.7381
X1.935Y-1.2681
X1.935Y-1.8131
X1.9525Y-1.1925
X2.0Y-1.3531
X2.005Y-1.3931
X2.0375Y-1.1775
X2.51Y-0.82
X8.6925Y-2.9575
T3
X1.5276Y-0.63
X1.5276Y-0.73
X1.5276Y-0.83
X1.6326Y-0.63
X1.6326Y-0.73
T4
X9.1875Y-2.2052
X9.3844Y-2.2879
X7.6875Y-2.2052
X7.8844Y-2.2879
X4.6875Y-2.2052
X3.1875Y-2.2052
X3.3844Y-2.2879
X6.5625Y-0.7052
X6.7594Y-0.7879
X11.25Y-0.7052
X11.4469Y-0.7879
X1.9688Y-2.9552
X2.1656Y-3.0379
X3.9375Y-2.9552
X4.1344Y-3.0379
X7.5Y-1.4552
X7.6969Y-1.5379
X6.9375Y-2.2052
X7.1344Y-2.2879
X7.2188Y-2.9552
X7.4156Y-3.0379
X2.9062Y-2.9552
X6.1969Y-1.5379
X1.2188Y-1.4552
X1.4156Y-1.5379
X2.25Y-1.4552
X2.4469Y-1.5379
X5.0625Y-2.9552
X5.2594Y-3.0379
X2.8125Y-0.7052
X3.0094Y-0.7879
X6.0Y-1.4552
X9.5625Y-0.7052
X7.3125Y-0.7052
X7.5094Y-0.7879
X9.7594Y-0.7879
X3.1031Y-3.0379
X8.25Y-1.4552
X8.1562Y-2.9552
X8.3531Y-3.0379
X8.4469Y-1.5379
X9.75Y-1.4552
X9.9469Y-1.5379
X10.9688Y-1.4552
X11.1656Y-1.5379
X9.9375Y-2.2052
X10.1344Y-2.2879
X3.9375Y-2.2052
X4.1344Y-2.2879
X3.5625Y-0.7052
X3.7594Y-0.7879
X3.9469Y-1.5379
X6.1875Y-2.2052
X6.3844Y-2.2879
X4.3125Y-0.7052
X4.5094Y-0.7879
X10.6875Y-2.9552
X10.8844Y-3.0379
X3.75Y-1.4552
X4.8844Y-2.2879
X8.0625Y-0.7052
X8.2594Y-0.7879
X3.0Y-1.4552
X3.1969Y-1.5379
X9.9375Y-2.9552
X10.1344Y-3.0379
X11.4375Y-2.9552
X11.6344Y-3.0379
X4.5Y-1.4552
X4.6969Y-1.5379
X11.4375Y-2.2052
X11.6344Y-2.2879
X1.125Y-0.7052
X1.3219Y-0.7879
X5.8125Y-0.7052
X6.0094Y-0.7879
X8.4375Y-2.2052
X8.6344Y-2.2879
X2.4375Y-2.2052
X2.6344Y-2.2879
X9.0938Y-2.9552
X9.2906Y-3.0379
X2.0625Y-0.7052
X2.2594Y-0.7879
X1.3125Y-2.2052
X1.5094Y-2.2879
X1.0312Y-2.9552
X1.2281Y-3.0379
X10.3125Y-0.7052
X10.5094Y-0.7879
X5.25Y-1.4552
X5.4469Y-1.5379
X6.75Y-1.4552
X6.9469Y-1.5379
X5.4375Y-2.2052
X5.6344Y-2.2879
X8.8125Y-0.7052
X9.0094Y-0.7879
X6.1875Y-2.9552
X6.3844Y-3.0379
X9.0Y-1.4552
X5.0625Y-0.7052
X5.2594Y-0.7879
X9.1969Y-1.5379
X10.6875Y-2.2052
X10.8844Y-2.2879
T5
X8.1Y-1.5875
X8.35Y-1.4875
X2.2875Y-2.3375
X2.5375Y-2.2375
X2.85Y-1.5875
X3.1Y-1.4875
X11.2875Y-3.0875
X11.5375Y-2.9875
X10.5375Y-2.3375
X10.7875Y-2.2375
X4.5375Y-2.3375
X7.1625Y-0.8375
X7.4125Y-0.7375
X4.7875Y-2.2375
X7.35Y-1.5875
X7.6Y-1.4875
X4.9125Y-3.0875
X5.1625Y-2.9875
X6.6Y-1.5875
X6.85Y-1.4875
X10.5375Y-3.0875
X1.3187Y-1.4875
X2.1Y-1.5875
X2.35Y-1.4875
X3.7875Y-3.0875
X4.0375Y-2.9875
X11.1Y-0.8375
X6.4125Y-0.8375
X1.0687Y-1.5875
X11.35Y-0.7375
X4.1625Y-0.8375
X4.4125Y-0.7375
X10.7875Y-2.9875
X9.7875Y-2.3375
X10.0375Y-2.2375
X9.0375Y-2.3375
X9.2875Y-2.2375
X3.7875Y-2.3375
X4.0375Y-2.2375
X6.6625Y-0.7375
X3.0375Y-2.3375
X3.2875Y-2.2375
X10.1625Y-0.8375
X10.4125Y-0.7375
X0.975Y-0.8375
X2.7563Y-3.0875
X9.1937Y-2.9875
X10.8187Y-1.5875
X11.0687Y-1.4875
X8.9437Y-3.0875
X10.0375Y-2.9875
X5.35Y-1.4875
X5.1Y-1.5875
X6.1Y-1.4875
X5.85Y-1.5875
X9.7875Y-3.0875
X1.225Y-0.7375
X5.1625Y-0.7375
X4.9125Y-0.8375
X5.9125Y-0.7375
X5.6625Y-0.8375
X3.0063Y-2.9875
X8.2875Y-2.3375
X8.5375Y-2.2375
X1.4125Y-2.2375
X7.0375Y-2.2375
X1.1625Y-2.3375
X1.8187Y-3.0875
X2.0688Y-2.9875
X6.7875Y-2.3375
X9.4125Y-0.8375
X9.6625Y-0.7375
X1.9125Y-0.8375
X2.1625Y-0.7375
X8.0062Y-3.0875
X8.2562Y-2.9875
X7.5375Y-2.3375
X7.7875Y-2.2375
X6.0375Y-2.3375
X9.6Y-1.5875
X9.85Y-1.4875
X7.0687Y-3.0875
X7.3187Y-2.9875
X4.35Y-1.5875
X4.6Y-1.4875
X6.0375Y-3.0875
X6.2875Y-2.9875
X3.6Y-1.5875
X3.85Y-1.4875
X8.6625Y-0.8375
X8.9125Y-0.7375
X7.9125Y-0.8375
X8.1625Y-0.7375
X0.8812Y-3.0875
X8.85Y-1.5875
X9.1Y-1.4875
X3.4125Y-0.8375
X3.6625Y-0.7375
X11.2875Y-2.3375
X2.6625Y-0.8375
X2.9125Y-0.7375
X11.5375Y-2.2375
X6.2875Y-2.2375
X1.1312Y-2.9875
X5.2875Y-2.3375
X5.5375Y-2.2375
T2
G00X0.5281Y-1.1424
M15
G01X0.5517Y-1.1424
M16
G05
G00X0.5281Y-1.4826
M15
G01X0.5517Y-1.4826
M16
G05
G00X0.6828Y-1.1424
M15
G01X0.7261Y-1.1424
M16
G05
G00X0.6828Y-1.4826
M15
G01X0.7261Y-1.4826
M16
G05
T0
M30
